<svg width="545" height="424" viewBox="0 0 545 424" fill="none" xmlns="http://www.w3.org/2000/svg">
<g clip-path="url(#clip0_1090_310)">
<rect width="545" height="424" fill="white"/>
<g filter="url(#filter0_d_1090_310)">
<path d="M413.168 7.14502H41.7526C34.0483 7.14502 27.8027 16.8353 27.8027 28.7888V391.322C27.8027 403.275 34.0483 412.966 41.7526 412.966H413.168C420.872 412.966 427.117 403.275 427.117 391.322V28.7888C427.117 16.8353 420.872 7.14502 413.168 7.14502Z" fill="white"/>
</g>
<rect x="-8" y="-10" width="545" height="423.538" rx="24" fill="white"/>
<path d="M112.131 76.836C113.326 77.116 114.25 77.6947 114.903 78.572C115.575 79.4307 115.911 80.4293 115.911 81.568C115.911 83.304 115.332 84.648 114.175 85.6C113.036 86.5333 111.394 87 109.247 87H98.859V67.176H108.967C110.983 67.176 112.57 67.6147 113.727 68.492C114.884 69.3693 115.463 70.648 115.463 72.328C115.463 73.4853 115.155 74.4653 114.539 75.268C113.942 76.052 113.139 76.5747 112.131 76.836ZM105.075 74.904H107.483C108.043 74.904 108.454 74.792 108.715 74.568C108.995 74.344 109.135 73.9987 109.135 73.532C109.135 73.0467 108.995 72.692 108.715 72.468C108.454 72.2253 108.043 72.104 107.483 72.104H105.075V74.904ZM107.903 82.016C108.463 82.016 108.874 81.9133 109.135 81.708C109.415 81.484 109.555 81.1293 109.555 80.644C109.555 79.692 109.004 79.216 107.903 79.216H105.075V82.016H107.903ZM117.16 79.104C117.16 77.4427 117.44 76.0053 118 74.792C118.578 73.56 119.362 72.6267 120.352 71.992C121.341 71.3387 122.452 71.012 123.684 71.012C124.71 71.012 125.597 71.2267 126.344 71.656C127.09 72.0667 127.66 72.636 128.052 73.364V71.208H134.24V87H128.052V84.844C127.66 85.572 127.09 86.1507 126.344 86.58C125.597 86.9907 124.71 87.196 123.684 87.196C122.452 87.196 121.341 86.8787 120.352 86.244C119.362 85.5907 118.578 84.6573 118 83.444C117.44 82.212 117.16 80.7653 117.16 79.104ZM128.052 79.104C128.052 78.264 127.837 77.6107 127.408 77.144C126.978 76.6773 126.428 76.444 125.756 76.444C125.084 76.444 124.533 76.6773 124.104 77.144C123.674 77.6107 123.46 78.264 123.46 79.104C123.46 79.944 123.674 80.5973 124.104 81.064C124.533 81.5307 125.084 81.764 125.756 81.764C126.428 81.764 126.978 81.5307 127.408 81.064C127.837 80.5973 128.052 79.944 128.052 79.104ZM143.247 74.12C143.882 73.2053 144.656 72.4773 145.571 71.936C146.486 71.376 147.438 71.096 148.427 71.096V77.732H146.663C145.487 77.732 144.619 77.9373 144.059 78.348C143.518 78.7587 143.247 79.4867 143.247 80.532V87H137.031V71.208H143.247V74.12ZM155.785 71.012C156.812 71.012 157.699 71.2267 158.445 71.656C159.192 72.0667 159.761 72.636 160.153 73.364V71.208H166.341V86.72C166.341 88.1947 166.071 89.5387 165.529 90.752C164.988 91.9653 164.111 92.936 162.897 93.664C161.703 94.392 160.163 94.756 158.277 94.756C155.739 94.756 153.723 94.1587 152.229 92.964C150.755 91.788 149.915 90.1827 149.709 88.148H155.813C155.981 88.9693 156.653 89.38 157.829 89.38C158.557 89.38 159.127 89.1933 159.537 88.82C159.948 88.4467 160.153 87.7467 160.153 86.72V84.844C159.761 85.572 159.192 86.1507 158.445 86.58C157.699 86.9907 156.812 87.196 155.785 87.196C154.553 87.196 153.443 86.8787 152.453 86.244C151.464 85.5907 150.68 84.6573 150.101 83.444C149.541 82.212 149.261 80.7653 149.261 79.104C149.261 77.4427 149.541 76.0053 150.101 74.792C150.68 73.56 151.464 72.6267 152.453 71.992C153.443 71.3387 154.553 71.012 155.785 71.012ZM160.153 79.104C160.153 78.264 159.939 77.6107 159.509 77.144C159.08 76.6773 158.529 76.444 157.857 76.444C157.185 76.444 156.635 76.6773 156.205 77.144C155.776 77.6107 155.561 78.264 155.561 79.104C155.561 79.944 155.776 80.5973 156.205 81.064C156.635 81.5307 157.185 81.764 157.857 81.764C158.529 81.764 159.08 81.5307 159.509 81.064C159.939 80.5973 160.153 79.944 160.153 79.104ZM168.292 79.104C168.292 77.4427 168.572 76.0053 169.132 74.792C169.711 73.56 170.495 72.6267 171.484 71.992C172.474 71.3387 173.584 71.012 174.816 71.012C175.843 71.012 176.73 71.2267 177.476 71.656C178.223 72.0667 178.792 72.636 179.184 73.364V71.208H185.372V87H179.184V84.844C178.792 85.572 178.223 86.1507 177.476 86.58C176.73 86.9907 175.843 87.196 174.816 87.196C173.584 87.196 172.474 86.8787 171.484 86.244C170.495 85.5907 169.711 84.6573 169.132 83.444C168.572 82.212 168.292 80.7653 168.292 79.104ZM179.184 79.104C179.184 78.264 178.97 77.6107 178.54 77.144C178.111 76.6773 177.56 76.444 176.888 76.444C176.216 76.444 175.666 76.6773 175.236 77.144C174.807 77.6107 174.592 78.264 174.592 79.104C174.592 79.944 174.807 80.5973 175.236 81.064C175.666 81.5307 176.216 81.764 176.888 81.764C177.56 81.764 178.111 81.5307 178.54 81.064C178.97 80.5973 179.184 79.944 179.184 79.104ZM191.3 69.948C190.217 69.948 189.349 69.6587 188.696 69.08C188.042 68.5013 187.716 67.7733 187.716 66.896C187.716 66 188.042 65.2627 188.696 64.684C189.349 64.0867 190.217 63.788 191.3 63.788C192.364 63.788 193.222 64.0867 193.876 64.684C194.529 65.2627 194.856 66 194.856 66.896C194.856 67.7733 194.529 68.5013 193.876 69.08C193.222 69.6587 192.364 69.948 191.3 69.948ZM194.38 71.208V87H188.164V71.208H194.38ZM208.247 71.096C210.058 71.096 211.467 71.7027 212.475 72.916C213.502 74.1293 214.015 75.772 214.015 77.844V87H207.827V78.628C207.827 77.8813 207.622 77.2933 207.211 76.864C206.819 76.416 206.287 76.192 205.615 76.192C204.924 76.192 204.383 76.416 203.991 76.864C203.599 77.2933 203.403 77.8813 203.403 78.628V87H197.187V71.208H203.403V73.616C203.888 72.8693 204.532 72.2627 205.335 71.796C206.156 71.3293 207.127 71.096 208.247 71.096ZM219.847 69.948C218.764 69.948 217.896 69.6587 217.243 69.08C216.589 68.5013 216.263 67.7733 216.263 66.896C216.263 66 216.589 65.2627 217.243 64.684C217.896 64.0867 218.764 63.788 219.847 63.788C220.911 63.788 221.769 64.0867 222.423 64.684C223.076 65.2627 223.403 66 223.403 66.896C223.403 67.7733 223.076 68.5013 222.423 69.08C221.769 69.6587 220.911 69.948 219.847 69.948ZM222.927 71.208V87H216.711V71.208H222.927ZM236.794 71.096C238.605 71.096 240.014 71.7027 241.022 72.916C242.049 74.1293 242.562 75.772 242.562 77.844V87H236.374V78.628C236.374 77.8813 236.169 77.2933 235.758 76.864C235.366 76.416 234.834 76.192 234.162 76.192C233.471 76.192 232.93 76.416 232.538 76.864C232.146 77.2933 231.95 77.8813 231.95 78.628V87H225.734V71.208H231.95V73.616C232.435 72.8693 233.079 72.2627 233.882 71.796C234.703 71.3293 235.674 71.096 236.794 71.096ZM250.941 71.012C251.968 71.012 252.855 71.2267 253.601 71.656C254.348 72.0667 254.917 72.636 255.309 73.364V71.208H261.497V86.72C261.497 88.1947 261.227 89.5387 260.685 90.752C260.144 91.9653 259.267 92.936 258.053 93.664C256.859 94.392 255.319 94.756 253.433 94.756C250.895 94.756 248.879 94.1587 247.385 92.964C245.911 91.788 245.071 90.1827 244.865 88.148H250.969C251.137 88.9693 251.809 89.38 252.985 89.38C253.713 89.38 254.283 89.1933 254.693 88.82C255.104 88.4467 255.309 87.7467 255.309 86.72V84.844C254.917 85.572 254.348 86.1507 253.601 86.58C252.855 86.9907 251.968 87.196 250.941 87.196C249.709 87.196 248.599 86.8787 247.609 86.244C246.62 85.5907 245.836 84.6573 245.257 83.444C244.697 82.212 244.417 80.7653 244.417 79.104C244.417 77.4427 244.697 76.0053 245.257 74.792C245.836 73.56 246.62 72.6267 247.609 71.992C248.599 71.3387 249.709 71.012 250.941 71.012ZM255.309 79.104C255.309 78.264 255.095 77.6107 254.665 77.144C254.236 76.6773 253.685 76.444 253.013 76.444C252.341 76.444 251.791 76.6773 251.361 77.144C250.932 77.6107 250.717 78.264 250.717 79.104C250.717 79.944 250.932 80.5973 251.361 81.064C251.791 81.5307 252.341 81.764 253.013 81.764C253.685 81.764 254.236 81.5307 254.665 81.064C255.095 80.5973 255.309 79.944 255.309 79.104ZM278.146 70.088C277.81 70.0507 277.577 70.032 277.446 70.032C276.98 70.032 276.625 70.1253 276.382 70.312C276.14 70.48 275.972 70.7787 275.878 71.208H278.146V76.388H275.822V87H269.606V76.388H267.926V71.208H269.606C269.644 69.1547 270.288 67.568 271.538 66.448C272.808 65.3093 274.581 64.74 276.858 64.74C277.12 64.74 277.549 64.7587 278.146 64.796V70.088ZM282.956 69.948C281.873 69.948 281.005 69.6587 280.352 69.08C279.699 68.5013 279.372 67.7733 279.372 66.896C279.372 66 279.699 65.2627 280.352 64.684C281.005 64.0867 281.873 63.788 282.956 63.788C284.02 63.788 284.879 64.0867 285.532 64.684C286.185 65.2627 286.512 66 286.512 66.896C286.512 67.7733 286.185 68.5013 285.532 69.08C284.879 69.6587 284.02 69.948 282.956 69.948ZM286.036 71.208V87H279.82V71.208H286.036ZM295.059 74.12C295.694 73.2053 296.469 72.4773 297.383 71.936C298.298 71.376 299.25 71.096 300.239 71.096V77.732H298.475C297.299 77.732 296.431 77.9373 295.871 78.348C295.33 78.7587 295.059 79.4867 295.059 80.532V87H288.843V71.208H295.059V74.12ZM308.942 87.196C307.448 87.196 306.123 86.9533 304.966 86.468C303.827 85.9827 302.922 85.3107 302.25 84.452C301.578 83.5933 301.195 82.6227 301.102 81.54H307.066C307.14 82.0067 307.336 82.352 307.654 82.576C307.99 82.8 308.41 82.912 308.914 82.912C309.231 82.912 309.483 82.8467 309.67 82.716C309.856 82.5667 309.95 82.3893 309.95 82.184C309.95 81.8293 309.754 81.5773 309.362 81.428C308.97 81.2787 308.307 81.1107 307.374 80.924C306.235 80.7 305.292 80.4573 304.546 80.196C303.818 79.9347 303.174 79.4867 302.614 78.852C302.072 78.2173 301.802 77.34 301.802 76.22C301.802 75.2493 302.054 74.372 302.558 73.588C303.08 72.7853 303.846 72.16 304.854 71.712C305.862 71.2453 307.084 71.012 308.522 71.012C310.65 71.012 312.311 71.5347 313.506 72.58C314.719 73.6253 315.447 74.988 315.69 76.668H310.174C310.08 76.2387 309.884 75.912 309.586 75.688C309.287 75.4453 308.886 75.324 308.382 75.324C308.064 75.324 307.822 75.3893 307.654 75.52C307.486 75.632 307.402 75.8093 307.402 76.052C307.402 76.3693 307.598 76.612 307.99 76.78C308.382 76.9293 309.007 77.088 309.866 77.256C311.004 77.48 311.966 77.732 312.75 78.012C313.534 78.292 314.215 78.7773 314.794 79.468C315.372 80.14 315.662 81.0733 315.662 82.268C315.662 83.2013 315.391 84.0413 314.85 84.788C314.308 85.5347 313.524 86.1227 312.498 86.552C311.49 86.9813 310.304 87.196 308.942 87.196ZM327.957 81.708V87H325.605C321.274 87 319.109 84.844 319.109 80.532V76.388H317.149V71.208H319.109V67.4H325.325V71.208H327.901V76.388H325.325V80.644C325.325 81.0173 325.409 81.288 325.577 81.456C325.763 81.624 326.062 81.708 326.473 81.708H327.957ZM336.988 82.044L334.104 90.36H330.184L331.5 82.044H336.988ZM352.408 87.196C350.037 87.196 348.077 86.6453 346.528 85.544C344.997 84.424 344.167 82.7907 344.036 80.644H350.644C350.737 81.7827 351.241 82.352 352.156 82.352C352.492 82.352 352.772 82.2773 352.996 82.128C353.239 81.96 353.36 81.708 353.36 81.372C353.36 80.9053 353.108 80.532 352.604 80.252C352.1 79.9533 351.316 79.6173 350.252 79.244C348.983 78.796 347.928 78.3573 347.088 77.928C346.267 77.4987 345.557 76.8733 344.96 76.052C344.363 75.2307 344.073 74.176 344.092 72.888C344.092 71.6 344.419 70.508 345.072 69.612C345.744 68.6973 346.649 68.0067 347.788 67.54C348.945 67.0733 350.243 66.84 351.68 66.84C354.107 66.84 356.029 67.4 357.448 68.52C358.885 69.64 359.641 71.2173 359.716 73.252H353.024C353.005 72.692 352.865 72.2907 352.604 72.048C352.343 71.8053 352.025 71.684 351.652 71.684C351.391 71.684 351.176 71.7773 351.008 71.964C350.84 72.132 350.756 72.3747 350.756 72.692C350.756 73.14 350.999 73.5133 351.484 73.812C351.988 74.092 352.781 74.4373 353.864 74.848C355.115 75.3147 356.141 75.7627 356.944 76.192C357.765 76.6213 358.475 77.2187 359.072 77.984C359.669 78.7493 359.968 79.7107 359.968 80.868C359.968 82.0813 359.669 83.1733 359.072 84.144C358.475 85.096 357.607 85.8427 356.468 86.384C355.329 86.9253 353.976 87.196 352.408 87.196ZM377.44 78.964C377.44 79.3933 377.412 79.804 377.356 80.196H367.36C367.453 81.5587 368.023 82.24 369.068 82.24C369.74 82.24 370.225 81.932 370.524 81.316H377.104C376.88 82.436 376.404 83.444 375.676 84.34C374.967 85.2173 374.061 85.9173 372.96 86.44C371.877 86.944 370.683 87.196 369.376 87.196C367.808 87.196 366.408 86.8693 365.176 86.216C363.963 85.5627 363.011 84.6293 362.32 83.416C361.648 82.184 361.312 80.7467 361.312 79.104C361.312 77.4613 361.648 76.0333 362.32 74.82C363.011 73.588 363.963 72.6453 365.176 71.992C366.408 71.3387 367.808 71.012 369.376 71.012C370.944 71.012 372.335 71.3387 373.548 71.992C374.78 72.6267 375.732 73.5413 376.404 74.736C377.095 75.9307 377.44 77.34 377.44 78.964ZM371.14 77.48C371.14 76.9573 370.972 76.5653 370.636 76.304C370.3 76.024 369.88 75.884 369.376 75.884C368.275 75.884 367.631 76.416 367.444 77.48H371.14ZM385.622 66.28V87H379.406V66.28H385.622ZM403.717 78.964C403.717 79.3933 403.689 79.804 403.633 80.196H393.637C393.731 81.5587 394.3 82.24 395.345 82.24C396.017 82.24 396.503 81.932 396.801 81.316H403.381C403.157 82.436 402.681 83.444 401.953 84.34C401.244 85.2173 400.339 85.9173 399.237 86.44C398.155 86.944 396.96 87.196 395.653 87.196C394.085 87.196 392.685 86.8693 391.453 86.216C390.24 85.5627 389.288 84.6293 388.597 83.416C387.925 82.184 387.589 80.7467 387.589 79.104C387.589 77.4613 387.925 76.0333 388.597 74.82C389.288 73.588 390.24 72.6453 391.453 71.992C392.685 71.3387 394.085 71.012 395.653 71.012C397.221 71.012 398.612 71.3387 399.825 71.992C401.057 72.6267 402.009 73.5413 402.681 74.736C403.372 75.9307 403.717 77.34 403.717 78.964ZM397.417 77.48C397.417 76.9573 397.249 76.5653 396.913 76.304C396.577 76.024 396.157 75.884 395.653 75.884C394.552 75.884 393.908 76.416 393.721 77.48H397.417ZM404.843 79.104C404.843 77.4613 405.179 76.0333 405.851 74.82C406.542 73.588 407.494 72.6453 408.707 71.992C409.939 71.3387 411.339 71.012 412.907 71.012C414.961 71.012 416.687 71.5907 418.087 72.748C419.506 73.9053 420.402 75.5107 420.775 77.564H414.195C413.953 76.7427 413.477 76.332 412.767 76.332C412.263 76.332 411.862 76.5653 411.563 77.032C411.283 77.4987 411.143 78.1893 411.143 79.104C411.143 80.0187 411.283 80.7093 411.563 81.176C411.862 81.6427 412.263 81.876 412.767 81.876C413.477 81.876 413.953 81.4653 414.195 80.644H420.775C420.402 82.6973 419.506 84.3027 418.087 85.46C416.687 86.6173 414.961 87.196 412.907 87.196C411.339 87.196 409.939 86.8693 408.707 86.216C407.494 85.5627 406.542 84.6293 405.851 83.416C405.179 82.184 404.843 80.7467 404.843 79.104ZM432.574 81.708V87H430.222C425.891 87 423.726 84.844 423.726 80.532V76.388H421.766V71.208H423.726V67.4H429.942V71.208H432.518V76.388H429.942V80.644C429.942 81.0173 430.026 81.288 430.194 81.456C430.38 81.624 430.679 81.708 431.09 81.708H432.574ZM186.045 129.196C184.552 129.196 183.227 128.953 182.069 128.468C180.931 127.983 180.025 127.311 179.353 126.452C178.681 125.593 178.299 124.623 178.205 123.54H184.169C184.244 124.007 184.44 124.352 184.757 124.576C185.093 124.8 185.513 124.912 186.017 124.912C186.335 124.912 186.587 124.847 186.773 124.716C186.96 124.567 187.053 124.389 187.053 124.184C187.053 123.829 186.857 123.577 186.465 123.428C186.073 123.279 185.411 123.111 184.477 122.924C183.339 122.7 182.396 122.457 181.649 122.196C180.921 121.935 180.277 121.487 179.717 120.852C179.176 120.217 178.905 119.34 178.905 118.22C178.905 117.249 179.157 116.372 179.661 115.588C180.184 114.785 180.949 114.16 181.957 113.712C182.965 113.245 184.188 113.012 185.625 113.012C187.753 113.012 189.415 113.535 190.609 114.58C191.823 115.625 192.551 116.988 192.793 118.668H187.277C187.184 118.239 186.988 117.912 186.689 117.688C186.391 117.445 185.989 117.324 185.485 117.324C185.168 117.324 184.925 117.389 184.757 117.52C184.589 117.632 184.505 117.809 184.505 118.052C184.505 118.369 184.701 118.612 185.093 118.78C185.485 118.929 186.111 119.088 186.969 119.256C188.108 119.48 189.069 119.732 189.853 120.012C190.637 120.292 191.319 120.777 191.897 121.468C192.476 122.14 192.765 123.073 192.765 124.268C192.765 125.201 192.495 126.041 191.953 126.788C191.412 127.535 190.628 128.123 189.601 128.552C188.593 128.981 187.408 129.196 186.045 129.196ZM205.06 123.708V129H202.708C198.377 129 196.212 126.844 196.212 122.532V118.388H194.252V113.208H196.212V109.4H202.428V113.208H205.004V118.388H202.428V122.644C202.428 123.017 202.512 123.288 202.68 123.456C202.867 123.624 203.165 123.708 203.576 123.708H205.06ZM214.931 129.196C213.345 129.196 211.917 128.869 210.647 128.216C209.378 127.563 208.379 126.629 207.651 125.416C206.942 124.184 206.587 122.747 206.587 121.104C206.587 119.461 206.942 118.033 207.651 116.82C208.379 115.588 209.378 114.645 210.647 113.992C211.917 113.339 213.345 113.012 214.931 113.012C216.518 113.012 217.946 113.339 219.215 113.992C220.485 114.645 221.474 115.588 222.183 116.82C222.911 118.033 223.275 119.461 223.275 121.104C223.275 122.747 222.911 124.184 222.183 125.416C221.474 126.629 220.485 127.563 219.215 128.216C217.946 128.869 216.518 129.196 214.931 129.196ZM214.931 123.82C215.51 123.82 215.995 123.596 216.387 123.148C216.779 122.681 216.975 122 216.975 121.104C216.975 120.208 216.779 119.536 216.387 119.088C215.995 118.621 215.51 118.388 214.931 118.388C214.353 118.388 213.867 118.621 213.475 119.088C213.083 119.536 212.887 120.208 212.887 121.104C212.887 122 213.074 122.681 213.447 123.148C213.839 123.596 214.334 123.82 214.931 123.82ZM231.444 116.12C232.079 115.205 232.853 114.477 233.768 113.936C234.683 113.376 235.635 113.096 236.624 113.096V119.732H234.86C233.684 119.732 232.816 119.937 232.256 120.348C231.715 120.759 231.444 121.487 231.444 122.532V129H225.228V113.208H231.444V116.12ZM253.586 120.964C253.586 121.393 253.558 121.804 253.502 122.196H243.506C243.6 123.559 244.169 124.24 245.214 124.24C245.886 124.24 246.372 123.932 246.67 123.316H253.25C253.026 124.436 252.55 125.444 251.822 126.34C251.113 127.217 250.208 127.917 249.106 128.44C248.024 128.944 246.829 129.196 245.522 129.196C243.954 129.196 242.554 128.869 241.322 128.216C240.109 127.563 239.157 126.629 238.466 125.416C237.794 124.184 237.458 122.747 237.458 121.104C237.458 119.461 237.794 118.033 238.466 116.82C239.157 115.588 240.109 114.645 241.322 113.992C242.554 113.339 243.954 113.012 245.522 113.012C247.09 113.012 248.481 113.339 249.694 113.992C250.926 114.627 251.878 115.541 252.55 116.736C253.241 117.931 253.586 119.34 253.586 120.964ZM247.286 119.48C247.286 118.957 247.118 118.565 246.782 118.304C246.446 118.024 246.026 117.884 245.522 117.884C244.421 117.884 243.777 118.416 243.59 119.48H247.286ZM275.346 129L273.974 127.712C272.219 128.757 270.157 129.28 267.786 129.28C266.181 129.28 264.781 129.028 263.586 128.524C262.41 128.02 261.505 127.311 260.87 126.396C260.235 125.463 259.918 124.399 259.918 123.204C259.918 122.065 260.207 121.029 260.786 120.096C261.383 119.144 262.27 118.341 263.446 117.688C262.587 116.624 262.158 115.504 262.158 114.328C262.158 113.32 262.419 112.396 262.942 111.556C263.483 110.716 264.267 110.053 265.294 109.568C266.321 109.064 267.543 108.812 268.962 108.812C270.399 108.812 271.622 109.073 272.63 109.596C273.638 110.1 274.394 110.772 274.898 111.612C275.402 112.452 275.654 113.357 275.654 114.328H269.998C269.998 113.973 269.895 113.712 269.69 113.544C269.485 113.357 269.242 113.264 268.962 113.264C268.663 113.264 268.402 113.357 268.178 113.544C267.973 113.712 267.87 113.955 267.87 114.272C267.87 114.869 268.281 115.56 269.102 116.344L273.61 120.712C273.871 120.208 274.105 119.639 274.31 119.004L274.394 118.752H280.414L280.134 119.48C279.425 121.347 278.547 123.008 277.502 124.464L282.178 129H275.346ZM268.234 124.38C268.906 124.38 269.531 124.277 270.11 124.072L266.806 120.992C266.489 121.216 266.246 121.477 266.078 121.776C265.929 122.056 265.854 122.345 265.854 122.644C265.854 123.129 266.059 123.54 266.47 123.876C266.899 124.212 267.487 124.38 268.234 124.38ZM294.554 115.364C294.946 114.636 295.506 114.067 296.234 113.656C296.98 113.227 297.867 113.012 298.894 113.012C300.126 113.012 301.236 113.339 302.226 113.992C303.215 114.627 303.99 115.56 304.55 116.792C305.128 118.005 305.418 119.443 305.418 121.104C305.418 122.765 305.128 124.212 304.55 125.444C303.99 126.657 303.215 127.591 302.226 128.244C301.236 128.879 300.126 129.196 298.894 129.196C297.867 129.196 296.98 128.991 296.234 128.58C295.506 128.151 294.946 127.572 294.554 126.844V129H288.338V108.28H294.554V115.364ZM299.118 121.104C299.118 120.264 298.903 119.611 298.474 119.144C298.044 118.677 297.494 118.444 296.822 118.444C296.15 118.444 295.599 118.677 295.169 119.144C294.74 119.611 294.526 120.264 294.526 121.104C294.526 121.944 294.74 122.597 295.169 123.064C295.599 123.531 296.15 123.764 296.822 123.764C297.494 123.764 298.044 123.531 298.474 123.064C298.903 122.597 299.118 121.944 299.118 121.104ZM324.085 113.208V129H317.869V126.592C317.383 127.339 316.73 127.945 315.909 128.412C315.106 128.879 314.145 129.112 313.025 129.112C311.214 129.112 309.795 128.505 308.769 127.292C307.761 126.079 307.257 124.436 307.257 122.364V113.208H313.445V121.58C313.445 122.327 313.641 122.924 314.033 123.372C314.443 123.801 314.985 124.016 315.657 124.016C316.347 124.016 316.889 123.801 317.281 123.372C317.673 122.924 317.869 122.327 317.869 121.58V113.208H324.085ZM344.728 113.208L334.62 136.56H327.816L331.792 128.216L325.212 113.208H332.128L335.096 121.216L337.868 113.208H344.728ZM348.921 129.224C347.839 129.224 346.971 128.935 346.317 128.356C345.664 127.777 345.337 127.049 345.337 126.172C345.337 125.276 345.664 124.539 346.317 123.96C346.971 123.363 347.839 123.064 348.921 123.064C349.985 123.064 350.844 123.363 351.497 123.96C352.151 124.539 352.477 125.276 352.477 126.172C352.477 127.049 352.151 127.777 351.497 128.356C350.844 128.935 349.985 129.224 348.921 129.224Z" fill="#3F3D56"/>
<path d="M-68.8501 408.052C-69.7549 406.182 -70.9347 404.232 -71.243 402.119C-73.7084 385.228 -73.7422 369.254 -63.5663 354.816C-39.9341 321.285 -11.6309 313.833 26.9246 316.679C48.8826 318.299 63.4616 328.159 68.7099 349.865C69.2288 352.011 69.467 353.194 69.5543 353.668C69.3965 352.613 68.8992 348.386 69.9921 344.754C73.4828 333.152 84.1961 323.715 93.947 317.55C126.757 296.809 187.792 271.545 224.639 295.734C240.827 306.36 237.786 333.499 233.138 349.211C231.865 353.512 227.388 366.103 229.578 362.189C234.275 353.795 239.889 348.097 248.209 342.741C274.506 325.812 307.622 326.076 337.743 328.298C364.292 330.258 392.628 336.233 410.728 357.223C421.665 369.907 423.19 383.433 418.585 399.449C417.958 401.632 414.235 408.052 411.387 412.684C424.691 396.861 458.18 390.775 475.612 388.606C501.314 385.408 543.741 392.902 555.223 419.717C568.314 450.292 566.134 485.27 547.846 513.556C543.386 520.452 536.694 525.455 532.223 532.094C531.41 533.301 530.796 533.578 530.419 533.558C530.735 533.932 531.231 534.694 531.924 536.146C536.849 546.464 541.043 554.618 542.783 566.824C550.584 621.533 544.447 678.959 523.714 730.19C509.104 766.29 481.636 780.812 444.547 789.646C390.525 802.513 332.572 800.238 277.329 800.506C220.666 800.781 157.504 795.242 102.424 782.167C53.089 770.456 6.98782 751.494 -40.1419 733.395C-73.5761 720.556 -92.2179 676.769 -98.0728 644.583C-105.886 601.635 -95.4537 561.442 -86.303 518.816C-83.1953 504.34 -79.6351 489.78 -78.5464 475.027C-77.9466 466.899 -73.4172 460.711 -72.8427 452.927C-72.2294 444.616 -67.4823 425.188 -70.7004 416.681C-70.9548 416.009 -71.259 415.405 -71.619 414.88C-72.9959 412.871 -71.2572 410.318 -68.8501 408.052Z" fill="#FB8C00"/>
<path d="M-72.4763 388.541C-73.425 386.584 -74.6621 384.542 -74.9856 382.331C-77.5721 364.648 -77.6093 347.925 -66.9429 332.811C-42.1715 297.711 -12.5003 289.914 27.92 292.897C50.9401 294.596 66.2253 304.919 71.7298 327.643C72.274 329.89 72.524 331.129 72.6155 331.625C72.4499 330.521 71.928 326.095 73.0734 322.293C76.7316 310.147 87.962 300.269 98.1837 293.817C132.578 272.107 196.562 245.666 235.194 270.993C252.165 282.118 248.981 310.529 244.109 326.977C242.776 331.479 238.083 344.66 240.379 340.562C245.302 331.776 251.187 325.811 259.909 320.205C287.476 302.486 322.193 302.765 353.771 305.096C381.605 307.15 411.312 313.408 430.289 335.384C441.756 348.664 443.356 362.823 438.531 379.59C437.873 381.875 433.971 388.596 430.986 393.444C444.931 376.881 480.039 370.514 498.314 368.245C525.259 364.9 569.739 372.75 581.779 400.823C595.506 432.832 593.225 469.449 574.055 499.058C569.381 506.278 562.366 511.514 557.679 518.464C556.827 519.727 556.183 520.017 555.788 519.996C556.12 520.388 556.639 521.186 557.366 522.706C562.531 533.508 566.928 542.044 568.754 554.822C576.938 612.096 570.511 672.213 548.78 725.842C533.468 763.632 504.673 778.832 465.791 788.076C409.158 801.54 348.403 799.152 290.488 799.426C231.084 799.708 164.868 793.902 107.123 780.208C55.4001 767.943 7.06736 748.088 -42.3436 729.135C-77.3962 715.69 -96.9443 669.85 -103.086 636.155C-111.281 591.193 -100.349 549.118 -90.761 504.495C-87.5046 489.341 -83.7738 474.099 -82.634 458.654C-82.0061 450.145 -77.2584 443.669 -76.657 435.52C-76.015 426.819 -71.0404 406.481 -74.4151 397.575C-74.6819 396.871 -75.0009 396.239 -75.3783 395.689C-76.822 393.586 -74.9996 390.914 -72.4763 388.541Z" fill="#FB8C00" fill-opacity="0.5"/>
<path d="M431.337 367.807C431.337 367.807 428.854 394.09 427.48 413.546V413.56C427.373 415.127 427.273 416.642 427.18 418.104L426.45 418.168C425.949 418.218 425.455 418.276 424.954 418.326C416.954 419.177 409.033 420.587 401.083 421.81C400.318 421.925 399.552 422.039 398.786 422.154C390.857 423.449 382.835 424.1 374.801 424.1H374.65C374.715 423.098 374.815 421.789 374.929 420.286C375.602 411.778 376.962 397.031 376.962 397.031L378.228 388.494L382.371 360.53L382.4 360.315L382.436 360.072L382.636 360.022L391.337 357.761L396.017 356.551L398.736 352.802L402.357 347.807L417.412 349.66L418.514 353.768L420.554 361.338L420.618 361.582L428.518 366.168L431.337 367.807Z" fill="#E6E6E6"/>
<path d="M409.846 346.19C418.658 346.19 425.801 339.046 425.801 330.235C425.801 321.423 418.658 314.279 409.846 314.279C401.034 314.279 393.891 321.423 393.891 330.235C393.891 339.046 401.034 346.19 409.846 346.19Z" fill="#FFB6B6"/>
<path d="M393.127 320.579C394.528 321.711 394.207 327.217 395.768 326.319C397.329 325.422 397.654 323.815 399.452 323.798C400.917 323.879 402.3 324.504 403.328 325.552C403.519 325.725 403.701 325.906 403.878 326.085C404.039 326.029 404.199 325.977 404.367 325.935C405.628 325.627 406.959 325.815 408.085 326.459C407.045 326.533 406.054 326.932 405.253 327.601C405.596 327.985 405.945 328.372 406.311 328.729C409.366 331.724 415.632 328.535 419.845 327.815C416.336 331.646 417.028 333.785 417.9 338.906L417.904 339.185C418.083 338.004 421.865 338.063 421.242 339.63C420.459 341.178 419.479 342.619 418.327 343.916C423.48 340.345 427.64 335.424 428.56 329.48C428.897 328.261 428.965 326.984 428.761 325.736C428.609 325.12 428.258 324.571 427.762 324.176C427.266 323.78 426.653 323.56 426.019 323.55C426.593 321.727 426.662 319.782 426.219 317.922C425.776 316.062 424.837 314.358 423.503 312.989C422.168 311.62 420.488 310.638 418.64 310.148C416.792 309.658 414.846 309.678 413.008 310.206C411.332 310.802 409.698 311.507 408.114 312.318C406.517 313.132 404.708 313.439 402.931 313.196C401.824 312.967 400.703 312.394 399.618 312.719C398.361 313.096 397.82 314.424 397.316 315.705C398.262 316.051 399.084 316.67 399.676 317.485C398.698 317.124 397.631 317.081 396.627 317.361C396.609 317.364 396.591 317.369 396.573 317.376C395.435 319.416 395.369 319.916 393.127 320.579Z" fill="#2F2E41"/>
<path d="M401.083 421.811C400.318 421.925 399.552 422.04 398.786 422.154C390.857 423.449 382.835 424.1 374.801 424.1C374.858 422.834 374.894 421.56 374.93 420.286C374.98 418.505 375.015 416.716 375.051 414.927C375.216 406.82 375.38 398.715 375.545 390.612C375.552 390.226 375.559 389.832 375.566 389.446C375.731 381.253 375.953 372.788 379.352 365.324C380.128 363.624 381.095 362.018 382.235 360.537C382.293 360.458 382.343 360.387 382.4 360.315C382.479 360.215 382.557 360.115 382.636 360.022C383.549 358.884 384.564 357.832 385.67 356.881C387.379 355.307 389.384 354.089 391.568 353.299C393.753 352.509 396.073 352.163 398.393 352.279L398.736 352.802L399.194 353.51C398.894 355.75 398.586 357.997 398.3 360.244C397.062 369.982 396.175 379.779 397.169 389.524C398.014 397.718 400.182 405.739 400.869 413.939C400.897 414.211 400.919 414.49 400.94 414.762C401.109 417.108 401.157 419.46 401.083 421.811Z" fill="#3F3D56"/>
<path d="M426.443 418.164C426.795 416.638 427.128 415.102 427.48 413.557V413.547C428.84 407.443 430.202 401.34 431.568 395.236C433.358 387.235 435.148 378.96 433.613 370.91C433.457 370.081 433.258 369.262 433.016 368.454C432.938 368.19 432.85 367.926 432.762 367.662C432.145 365.808 431.308 364.035 430.268 362.38C427.548 358.037 423.479 354.663 418.51 353.773C418.418 353.745 418.323 353.725 418.227 353.714L417.141 354.721C416.916 356.805 416.701 358.908 416.466 361.001C415.351 370.91 413.893 380.808 410.558 390.179C407.702 398.2 403.515 405.702 400.904 413.801C400.894 413.85 400.874 413.899 400.865 413.938C400.003 416.632 399.307 419.376 398.781 422.154C399.544 422.037 400.317 421.929 401.08 421.812C409.032 420.589 416.945 419.181 424.947 418.33L426.443 418.164Z" fill="#3F3D56"/>
<path d="M441.987 326.878L441.529 322.484L441.422 321.468L441.257 319.836L437.722 285.926C438.015 284.948 437.974 283.9 437.608 282.947C437.242 281.994 436.57 281.19 435.697 280.659C434.689 280.058 433.484 279.882 432.346 280.169C431.209 280.456 430.231 281.183 429.629 282.191C429.608 282.226 429.594 282.262 429.572 282.298C428.971 283.346 428.802 284.587 429.102 285.757C429.401 286.928 430.145 287.935 431.175 288.566C431.388 288.688 431.611 288.794 431.84 288.881L431.812 289.833L431.726 292.817L431.662 295.071L431.526 299.557L431.476 301.296L431.311 306.935L431.154 312.373L430.96 318.963L430.81 324.03L432.635 324.495L441.987 326.878Z" fill="#FFB6B6"/>
<path d="M445.524 334.097C445.447 333.509 445.306 332.93 445.101 332.373C444.178 330.77 443.613 333.01 444.121 328.716C444.529 325.232 442.082 325.668 442.962 324.924C444.414 323.693 442.411 323.149 441.531 322.484C441.137 322.19 440.973 321.876 441.424 321.468C441.635 321.283 441.871 321.129 442.125 321.01C443.084 320.509 442.533 320.13 441.259 319.836C438.394 319.359 435.498 319.089 432.593 319.028C431.892 318.992 431.32 318.978 430.962 318.963C430.697 318.956 430.547 318.956 430.547 318.956C430.048 319.43 429.735 320.067 429.667 320.752C429.455 322.206 429.567 323.69 429.996 325.096C430.29 326.072 430.681 327.016 431.162 327.915C431.346 328.252 431.431 328.634 431.406 329.017V329.024C431.355 329.25 431.254 329.462 431.112 329.645C430.97 329.828 430.789 329.978 430.583 330.083C429.617 330.727 430.153 332.079 430.905 333.353C431.543 334.207 432.086 335.128 432.522 336.101C432.522 336.981 426.568 355.686 426.568 355.686L428.758 383.929C430.382 385.181 432.431 385.749 434.468 385.51C436.167 385.225 437.738 384.425 438.969 383.221C440.701 381.527 442.11 379.531 443.126 377.331C448.908 365.718 446.754 340.952 445.524 334.097Z" fill="#3F3D56"/>
<path d="M336.954 287.52C338.039 288.049 338.876 288.981 339.285 290.118C339.694 291.254 339.643 292.506 339.143 293.605C339.038 293.827 338.915 294.04 338.775 294.242L359.364 322.744L351.709 331.377L332.246 295.102C331.455 294.456 330.9 293.566 330.668 292.572C330.436 291.577 330.539 290.534 330.962 289.604C331.459 288.541 332.358 287.718 333.461 287.317C334.564 286.917 335.781 286.97 336.844 287.467C336.881 287.484 336.918 287.502 336.954 287.52Z" fill="#FFB6B6"/>
<path d="M394.668 371.091C394.668 371.091 391.916 380.935 379.071 373.703C366.226 366.47 352.334 339.461 352.195 337.611C352.057 335.76 353.782 337.298 350.955 334.033C348.655 331.378 350.926 330.364 349.782 330.241C346.763 329.917 352.004 326.091 348.277 326.53C344.55 326.969 356.703 318.331 356.703 318.331C356.703 318.331 358.918 318.384 360.608 323.105C361.558 325.757 360.661 327.571 362.924 327.561C365.186 327.55 364.218 332.923 364.696 333.633C365.175 334.343 380.617 346.492 380.617 346.492L394.668 371.091Z" fill="#3F3D56"/>
<path d="M377.581 308.837C418.681 308.837 451.999 275.519 451.999 234.418C451.999 193.318 418.681 160 377.581 160C336.48 160 303.162 193.318 303.162 234.418C303.162 275.519 336.48 308.837 377.581 308.837Z" fill="#F9A826"/>
<path d="M339.765 217.858C340.539 219.331 341.13 220.894 341.525 222.511C342.535 226.763 341.826 230.622 339.505 232.431C339.273 232.619 339.022 232.784 338.757 232.922C335.854 234.44 331.847 232.838 328.637 229.252C327.534 228.005 326.588 226.627 325.819 225.151C325.049 223.694 324.462 222.147 324.072 220.545C322.941 215.849 323.905 211.614 326.818 210.091C330.675 208.074 336.47 211.556 339.765 217.858Z" fill="white"/>
<path d="M338.532 225.125C339.711 227.368 340.056 229.957 339.505 232.431C339.273 232.619 339.022 232.783 338.757 232.922C335.854 234.44 331.847 232.838 328.637 229.251C327.534 228.004 326.588 226.627 325.819 225.151C325.049 223.693 324.462 222.146 324.072 220.545C326.598 219.242 329.538 218.992 332.248 219.851C334.957 220.709 337.217 222.605 338.532 225.125Z" fill="#3F3D56"/>
<path d="M368.654 202.75C371.818 208.8 371.528 215.254 368.092 217.548C367.949 217.645 367.8 217.734 367.646 217.814C363.798 219.827 358.003 216.344 354.708 210.043C353.939 208.589 353.354 207.044 352.966 205.446C351.83 200.742 352.794 196.506 355.707 194.983C359.564 192.966 365.358 196.448 368.654 202.75Z" fill="white"/>
<path d="M367.136 210.167C368.327 212.434 368.667 215.052 368.093 217.548C367.95 217.645 367.801 217.734 367.647 217.814C363.799 219.826 358.004 216.344 354.709 210.043C353.94 208.588 353.355 207.044 352.967 205.446C355.48 204.243 358.362 204.064 361.005 204.944C363.648 205.825 365.846 207.697 367.136 210.167Z" fill="#3F3D56"/>
<path d="M336.119 260.607C344.881 277.362 361.88 285.769 374.087 279.385C386.294 273.002 389.086 254.244 380.324 237.49C370.699 251.523 356.122 259.425 336.119 260.607Z" fill="white"/>
<path opacity="0.2" d="M443.615 200.042C436.534 186.502 425.457 175.469 411.889 168.44C398.321 161.412 382.919 158.729 367.773 160.755C385.656 163.109 402.076 171.876 413.979 185.427C425.883 198.978 432.46 216.391 432.488 234.428C432.517 252.465 425.994 269.899 414.132 283.487C402.271 297.075 385.879 305.894 368.004 308.303C381.51 310.077 395.245 308.109 407.709 302.614C420.174 297.118 430.891 288.306 438.691 277.138C446.491 265.969 451.075 252.874 451.944 239.279C452.812 225.684 449.931 212.112 443.615 200.042Z" fill="black"/>
<path d="M257.649 452.852C256.478 452.784 255.335 452.463 254.3 451.91C253.265 451.357 252.363 450.586 251.655 449.65C250.948 448.714 250.452 447.635 250.202 446.489C249.953 445.342 249.955 444.155 250.209 443.01L217.381 419.499L221.651 408.82L260.438 437.029C262.334 437.6 263.955 438.847 264.993 440.534C266.032 442.22 266.415 444.229 266.072 446.179C265.728 448.13 264.681 449.886 263.128 451.116C261.576 452.346 259.626 452.964 257.649 452.852Z" fill="#A0616A"/>
<path d="M169.453 321.4L149.727 328.619C148.86 328.936 148.064 329.421 147.384 330.046C146.705 330.67 146.155 331.423 145.767 332.26C145.378 333.097 145.158 334.003 145.119 334.925C145.081 335.847 145.224 336.768 145.541 337.635C145.619 337.847 145.706 338.054 145.804 338.258L172.7 394.365L237.503 441.071L247.436 425.245L198.346 380.544L169.453 321.4Z" fill="#3F3D56"/>
<path d="M161.341 437.433C138.86 435.343 116.839 430.154 94.3242 428.408L103.36 405.411L149.538 412.289L161.341 437.433Z" fill="#A0616A"/>
<path d="M167.175 382.839L163.295 405.411C163.295 405.411 172.721 426.651 166.234 431.944C165.441 432.656 164.83 433.548 164.454 434.545C164.079 435.542 163.949 436.615 164.075 437.674C163.157 437.593 162.25 437.513 161.343 437.432C138.862 435.343 116.841 430.153 94.3263 428.408C92.7303 428.282 91.1459 428.167 89.55 428.087L96.4848 408.362L91.8004 390.83L86.9438 372.643L85.899 342.7C85.8741 342.134 85.8779 341.566 85.9104 341.001C85.9104 340.702 85.922 340.415 85.945 340.117C86.1974 336.335 87.2938 332.658 89.1534 329.356C91.0131 326.054 93.5888 323.211 96.6915 321.035C96.7002 321.033 96.7083 321.029 96.7145 321.023C97.7725 320.281 98.8856 319.621 100.044 319.048C101.288 318.431 102.583 317.92 103.913 317.521L105.245 317.12L112.455 305.454L120.814 304.582L123.914 304.26L144.109 302.159L148.461 307.808L149.253 308.841L152.319 312.814L161.871 317.9C163.959 319.007 165.867 320.424 167.531 322.102C171.437 326.007 173.861 331.151 174.386 336.649C174.512 337.916 174.535 339.191 174.455 340.461L167.175 382.839Z" fill="#3F3D56"/>
<path d="M68.8705 281.182C68.6631 290.106 71.9979 298.746 76.7887 306.335C78.3891 301.928 80.6302 297.782 83.4398 294.028C82.0945 302.344 83.5274 310.871 87.5168 318.29C87.6575 318.39 87.8031 318.484 87.9532 318.57C89.8686 319.813 92.0419 320.603 94.3082 320.881C96.5745 321.159 98.8743 320.917 101.033 320.174C96.7685 315.347 94.2109 309.25 93.7553 302.826C93.2996 296.401 94.9712 290.004 98.5119 284.624C100.584 281.63 103.263 278.981 104.546 275.574C106.572 270.136 104.625 264.15 103.396 258.481C102.247 253.205 102.046 246.927 105.586 243.06C105.208 242.52 104.693 242.089 104.094 241.814C103.495 241.538 102.833 241.426 102.177 241.49C101.11 241.761 100.121 242.278 99.2905 243.001C98.4599 243.723 97.8103 244.63 97.394 245.649C96.5778 247.691 95.542 249.638 94.305 251.456C91.6939 254.614 87.2472 255.361 83.4999 257.025C74.4247 261.068 69.088 271.253 68.8705 281.182Z" fill="#2F2E41"/>
<path d="M145.263 276.08C144.744 274.265 148.318 285.36 146.594 285.56C138.738 286.462 127.953 291.154 122.482 293.342C122.235 293.314 121.989 293.285 121.75 293.249C121.163 293.185 120.59 293.092 120.025 292.985C107.284 290.574 102.385 271.003 102.385 270.824C102.385 269.944 104.496 245.779 107.823 245.422C108.697 245.327 109.575 245.279 110.454 245.279H118.708C120.416 244.911 122.148 244.66 123.89 244.528H123.904C140.522 243.261 153.625 253.39 152.401 265.715C152.393 265.729 152.379 265.744 152.372 265.758C152.016 266.287 151.705 266.788 151.429 267.267C151.161 267.718 150.937 268.147 150.741 268.555C149.226 271.702 153.12 275.662 150.538 276.402C147.104 277.385 159.569 309.699 145.978 309.699C152.589 311.579 146.693 281.087 145.263 276.08Z" fill="#2F2E41"/>
<path d="M130.425 295.041C141.218 295.041 149.968 286.291 149.968 275.497C149.968 264.703 141.218 255.953 130.425 255.953C119.631 255.953 110.881 264.703 110.881 275.497C110.881 286.291 119.631 295.041 130.425 295.041Z" fill="#A0616A"/>
<path d="M152.4 266.781C152.074 266.952 151.755 267.11 151.429 267.267C151.089 267.432 150.748 267.596 150.407 267.746C143.863 270.715 138.536 271.044 135.304 266.781C135.218 264.538 134.714 262.33 133.818 260.271C133.977 262.572 133.37 264.86 132.094 266.781H125.586C118.882 271.23 115.44 271.695 120.092 286.302C121.39 290.372 126.548 314.056 124.518 317.568C123.931 317.503 117.686 291.562 117.121 291.455C104.38 289.044 96.2851 268.054 97.3215 266.867C97.3164 263.49 98.0928 260.158 99.5899 257.131C101.484 253.297 104.436 250.085 108.098 247.875C110.281 246.817 112.556 245.962 114.896 245.322C114.954 245.307 115.005 245.293 115.063 245.279C115.78 245.086 116.512 244.907 117.244 244.756C118.756 244.437 120.285 244.206 121.824 244.063C121.933 244.056 122.042 244.048 122.143 244.048C122.758 244.05 123.361 244.215 123.89 244.528C123.897 244.528 123.897 244.535 123.904 244.535C124.282 244.756 124.613 245.05 124.875 245.4C125.338 245.99 125.589 246.718 125.586 247.468H132.833C133.101 247.468 133.369 247.475 133.637 247.489C138.474 247.654 143.075 249.619 146.54 252.997C150.005 256.376 152.085 260.927 152.371 265.758C152.393 266.101 152.4 266.438 152.4 266.781Z" fill="#2F2E41"/>
<path d="M109.67 260.533C116.781 260.533 122.546 254.769 122.546 247.658C122.546 240.547 116.781 234.782 109.67 234.782C102.56 234.782 96.7949 240.547 96.7949 247.658C96.7949 254.769 102.56 260.533 109.67 260.533Z" fill="#2F2E41"/>
<path d="M122.103 334.479L120.943 336.649L91.8033 390.83L90.9307 392.449L86.8089 427.961L85.4311 439.855L85.0752 442.829V442.84L84.8801 444.563L83.2726 458.398L81.3897 458.512L78.2209 458.719L70.448 459.201L64.627 459.569L64.6384 450.257L64.7417 379.693L85.9133 341.001L86.43 340.048L94.6047 325.111C95.5025 323.473 97.0141 322.258 98.8071 321.735C100.6 321.211 102.528 321.422 104.166 322.319C104.36 322.426 104.548 322.541 104.731 322.665L122.103 334.479Z" fill="#3F3D56"/>
</g>
<defs>
<filter id="filter0_d_1090_310" x="-62.1973" y="-82.855" width="599.314" height="605.821" filterUnits="userSpaceOnUse" color-interpolation-filters="sRGB">
<feFlood flood-opacity="0" result="BackgroundImageFix"/>
<feColorMatrix in="SourceAlpha" type="matrix" values="0 0 0 0 0 0 0 0 0 0 0 0 0 0 0 0 0 0 127 0" result="hardAlpha"/>
<feOffset dx="10" dy="10"/>
<feGaussianBlur stdDeviation="50"/>
<feComposite in2="hardAlpha" operator="out"/>
<feColorMatrix type="matrix" values="0 0 0 0 0.741667 0 0 0 0 0.741667 0 0 0 0 0.741667 0 0 0 0.35 0"/>
<feBlend mode="normal" in2="BackgroundImageFix" result="effect1_dropShadow_1090_310"/>
<feBlend mode="normal" in="SourceGraphic" in2="effect1_dropShadow_1090_310" result="shape"/>
</filter>
<clipPath id="clip0_1090_310">
<rect width="545" height="424" fill="white"/>
</clipPath>
</defs>
</svg>
