<svg width="545" height="424" viewBox="0 0 545 424" fill="none" xmlns="http://www.w3.org/2000/svg">
<g clip-path="url(#clip0_1090_165)">
<rect width="545" height="424" fill="white"/>
<path d="M-5.25778 300.59C-5.56415 299.106 -6.05084 297.517 -5.89212 295.968C-4.62296 283.581 -1.79751 272.277 7.97495 263.88C30.6703 244.38 52.0176 244.158 78.7794 253.048C94.0208 258.11 102.573 267.684 102.414 283.973C102.398 285.583 102.355 286.462 102.333 286.813C102.409 286.039 102.811 282.961 104.232 280.586C108.771 273.003 118.031 268.239 126.027 265.619C152.932 256.801 200.607 249.82 222.354 273.5C231.907 283.903 224.916 302.555 218.826 312.839C217.159 315.654 211.746 323.761 213.993 321.383C218.812 316.284 223.8 313.255 230.64 310.951C252.258 303.668 275.634 309.762 296.541 316.706C314.969 322.828 333.945 332.108 343.002 350.182C348.475 361.104 347.141 370.943 341.028 381.449C340.194 382.882 336.416 386.758 333.576 389.526C345.808 380.708 370.579 382.377 383.295 383.952C402.044 386.274 430.715 399.143 434.053 420.157C437.858 444.116 430.077 468.467 412.097 485.21C407.713 489.293 402.088 491.637 397.741 495.535C396.951 496.244 396.467 496.33 396.204 496.249C396.361 496.57 396.576 497.197 396.807 498.348C398.45 506.524 399.962 513.039 399.015 521.982C394.774 562.068 380.191 601.59 356.388 634.126C339.616 657.052 317.599 662.424 289.79 662.057C249.287 661.522 208.704 649.575 169.585 639.911C129.459 629.999 85.7743 614.815 49.1498 595.743C16.345 578.66 -12.8791 557.026 -42.9845 535.818C-64.3415 520.774 -69.7162 486.479 -68.1163 462.671C-65.9814 430.901 -51.434 404.334 -37.3588 375.818C-32.5787 366.134 -27.4636 356.471 -24.062 346.231C-22.188 340.589 -17.8809 337.021 -16.0861 331.617C-14.1698 325.848 -7.34692 312.954 -8.10577 306.364C-8.16576 305.843 -8.27314 305.361 -8.43406 304.926C-9.04967 303.259 -7.36457 301.764 -5.25778 300.59Z" fill="#FB8C00"/>
<path d="M92.2931 257.356C91.9713 255.802 91.4604 254.138 91.626 252.516C92.9508 239.548 95.9074 227.714 106.147 218.927C129.928 198.52 152.305 198.298 180.361 207.617C196.339 212.924 205.309 222.953 205.149 240.006C205.133 241.692 205.089 242.613 205.065 242.98C205.145 242.17 205.565 238.947 207.053 236.462C211.807 228.524 221.512 223.541 229.893 220.801C258.091 211.581 308.062 204.292 330.868 229.096C340.887 239.992 333.567 259.518 327.187 270.282C325.441 273.229 319.771 281.714 322.126 279.226C327.175 273.889 332.401 270.72 339.57 268.311C362.228 260.696 386.733 267.086 408.652 274.367C427.971 280.784 447.866 290.509 457.368 309.437C463.11 320.875 461.716 331.175 455.313 342.173C454.44 343.672 450.481 347.729 447.505 350.626C460.322 341.399 486.289 343.158 499.619 344.813C519.273 347.253 549.333 360.739 552.841 382.742C556.84 407.829 548.695 433.321 529.856 450.843C525.262 455.116 519.367 457.568 514.812 461.647C513.984 462.389 513.477 462.479 513.201 462.394C513.366 462.73 513.591 463.387 513.834 464.592C515.56 473.153 517.148 479.975 516.16 489.338C511.732 531.306 496.464 572.679 471.528 606.734C453.958 630.731 430.881 636.345 401.731 635.948C359.275 635.369 316.73 622.843 275.72 612.707C233.654 602.31 187.857 586.393 149.458 566.408C115.063 548.507 84.4203 525.843 52.8537 503.625C30.4601 487.863 24.8107 451.954 26.4769 427.027C28.7004 393.765 43.9372 365.956 58.6782 336.106C63.6844 325.969 69.0418 315.854 72.6027 305.134C74.5646 299.227 79.0778 295.493 80.9567 289.837C82.9627 283.798 90.1088 270.3 89.3104 263.4C89.2472 262.855 89.1345 262.35 88.9656 261.894C88.3195 260.149 90.0852 258.584 92.2931 257.356Z" fill="#FB8C00" fill-opacity="0.5"/>
<path d="M354.409 287.889H353.044V316.564H354.409V287.889Z" fill="#F2F2F2"/>
<path d="M339.39 269.454H331.197V552.115H339.39V269.454Z" fill="#F2F2F2"/>
<path d="M372.803 291.644H297.785C296.962 291.644 296.148 291.469 295.398 291.131C294.648 290.792 293.979 290.298 293.434 289.681C292.889 289.064 292.482 288.339 292.24 287.552C291.997 286.766 291.924 285.937 292.026 285.121L301.585 208.652C301.762 207.249 302.445 205.959 303.505 205.023C304.565 204.088 305.93 203.57 307.343 203.568H363.244C364.658 203.57 366.023 204.088 367.083 205.023C368.143 205.959 368.826 207.249 369.003 208.652L378.562 285.121C378.664 285.937 378.591 286.766 378.348 287.552C378.106 288.339 377.698 289.064 377.154 289.681C376.609 290.298 375.94 290.792 375.19 291.131C374.439 291.469 373.626 291.644 372.803 291.644Z" fill="#FCEA2B"/>
<path d="M353.729 321.343C356.368 321.343 358.508 319.203 358.508 316.564C358.508 313.924 356.368 311.785 353.729 311.785C351.089 311.785 348.949 313.924 348.949 316.564C348.949 319.203 351.089 321.343 353.729 321.343Z" fill="#F2F2F2"/>
<path d="M19.9037 410.97H-54.2095C-57.6586 410.966 -60.9653 409.594 -63.4041 407.156C-65.843 404.717 -67.2149 401.41 -67.2188 397.961V347.501C-67.2149 344.052 -65.843 340.745 -63.4041 338.306C-60.9653 335.867 -57.6586 334.496 -54.2095 334.492H19.9037C23.3527 334.496 26.6594 335.867 29.0983 338.306C31.5372 340.745 32.909 344.052 32.9129 347.501V397.961C32.909 401.41 31.5371 404.717 29.0983 407.156C26.6594 409.594 23.3527 410.966 19.9037 410.97Z" fill="#E6E6E6"/>
<path d="M119.643 411.364H45.5298C42.0807 411.36 38.774 409.988 36.3351 407.55C33.8963 405.111 32.5244 401.804 32.5205 398.355V347.895C32.5244 344.446 33.8963 341.139 36.3351 338.7C38.774 336.262 42.0807 334.89 45.5298 334.886H119.643C123.092 334.89 126.399 336.262 128.838 338.7C131.276 341.139 132.648 344.446 132.652 347.895V398.355C132.648 401.804 131.276 405.111 128.838 407.55C126.399 409.988 123.092 411.36 119.643 411.364Z" fill="#E6E6E6"/>
<path d="M219.378 411.758H145.265C141.816 411.754 138.509 410.382 136.07 407.944C133.632 405.505 132.26 402.198 132.256 398.749V348.289C132.26 344.84 133.632 341.533 136.07 339.094C138.509 336.656 141.816 335.284 145.265 335.28H219.378C222.827 335.284 226.134 336.656 228.573 339.094C231.012 341.533 232.384 344.84 232.387 348.289V398.749C232.384 402.198 231.012 405.505 228.573 407.944C226.134 410.382 222.827 411.754 219.378 411.758Z" fill="#E6E6E6"/>
<path d="M247.763 408.21H-78.6504V476.41H247.763V408.21Z" fill="#E6E6E6"/>
<path d="M246.188 476.805H231.996V379.827H259.197V460.136C259.197 469.327 253.361 476.805 246.188 476.805Z" fill="#E6E6E6"/>
<path d="M33.3093 422.402H-66.8223V401.114C-33.4449 381.968 -0.0677567 381.968 33.3093 401.114V422.402Z" fill="#CCCCCC"/>
<path d="M133.045 422.797H32.9131V401.509C66.2904 382.363 99.6676 382.363 133.045 401.509V422.797Z" fill="#CCCCCC"/>
<path d="M232.784 423.191H132.652V401.903C166.03 382.757 199.407 382.757 232.784 401.903V423.191Z" fill="#CCCCCC"/>
<path d="M254.464 408.21C267.31 408.21 277.723 397.797 277.723 384.951C277.723 372.106 267.31 361.692 254.464 361.692C241.618 361.692 231.205 372.106 231.205 384.951C231.205 397.797 241.618 408.21 254.464 408.21Z" fill="#CCCCCC"/>
<path d="M185.95 339.385C186.004 339.759 186.028 340.137 186.023 340.514L213.902 359.73L221.337 356.21L228.116 366.736L215.559 374.246C214.545 374.853 213.361 375.114 212.185 374.991C211.01 374.868 209.906 374.366 209.04 373.562L180.805 347.356C179.404 347.751 177.916 347.709 176.539 347.237C175.162 346.765 173.962 345.885 173.098 344.714C172.233 343.544 171.746 342.137 171.7 340.683C171.654 339.228 172.052 337.794 172.842 336.571C173.631 335.348 174.774 334.395 176.118 333.837C177.462 333.28 178.945 333.145 180.368 333.45C181.791 333.756 183.087 334.487 184.084 335.547C185.081 336.608 185.732 337.946 185.95 339.385Z" fill="#FFB8B8"/>
<path d="M214.442 358.076C214.565 357.652 214.777 357.26 215.066 356.925C215.354 356.591 215.711 356.323 216.112 356.139L230.131 349.715C232.024 348.483 234.329 348.051 236.539 348.516C238.75 348.98 240.687 350.301 241.924 352.191C243.162 354.08 243.6 356.384 243.142 358.596C242.684 360.808 241.368 362.748 239.482 363.991L227.893 374.239C227.562 374.531 227.172 374.749 226.749 374.877C226.327 375.005 225.882 375.041 225.444 374.981C225.007 374.922 224.587 374.769 224.214 374.533C223.841 374.297 223.523 373.983 223.282 373.613L214.818 360.607C214.577 360.237 214.419 359.82 214.354 359.383C214.289 358.946 214.319 358.501 214.442 358.076Z" fill="#F9A826"/>
<path d="M185.599 340.638L185.459 340.648L185.076 335.36C184.954 333.669 183.86 332.371 182.634 332.46L174.505 333.048C173.278 333.137 171.021 334.678 171.143 336.368L171.242 337.73L173.243 365.379C173.365 367.069 175.82 368.269 177.047 368.18L185.176 367.592C186.402 367.503 187.297 366.061 187.175 364.371L185.731 344.412L185.871 344.402L185.599 340.638Z" fill="#3F3D56"/>
<path d="M184.607 335.416L186.703 364.384C186.794 365.646 186.126 366.723 185.21 366.789L177.042 367.38C176.126 367.447 175.309 366.477 175.218 365.215L173.122 336.247C173.03 334.984 173.699 333.907 174.615 333.841L175.606 333.769C175.537 334.027 175.552 334.3 175.648 334.549C175.744 334.797 175.917 335.009 176.141 335.154C176.235 335.199 176.339 335.219 176.443 335.212L181.101 334.875C181.536 334.843 181.853 334.331 181.81 333.731C181.8 333.593 181.77 333.457 181.722 333.327L182.783 333.25C183.699 333.184 184.515 334.153 184.607 335.416Z" fill="white"/>
<path d="M70.0184 402.306L67.3242 394.381L96.6104 380.218L100.587 391.915L70.0184 402.306Z" fill="#FFB8B8"/>
<path d="M63.0218 406.939L54.335 381.385L54.6582 381.275C55.9643 380.831 57.3451 380.649 58.7218 380.738C60.0984 380.828 61.4439 381.188 62.6815 381.797C63.9191 382.407 65.0245 383.254 65.9346 384.291C66.8447 385.328 67.5416 386.534 67.9856 387.84L73.2914 403.448L63.0218 406.939Z" fill="#2F2E41"/>
<path d="M186.249 407.961C179.968 408.314 173.705 407.003 168.093 404.16L133.655 380.732L93.4445 395.622C92.3771 395.986 91.2117 395.93 90.1836 395.467C89.1555 395.004 88.3413 394.169 87.9054 393.129L85.9346 388.389C85.4851 387.322 85.4722 386.122 85.8986 385.047C86.325 383.971 87.1566 383.105 88.2145 382.637L126.631 365.385C131.244 363.321 136.417 362.873 141.316 364.115L194.647 377.705L208.744 394.446L208.588 394.662C201.667 404.21 193.459 407.44 186.249 407.961Z" fill="#2F2E41"/>
<path d="M229.806 338.006C239.068 338.006 246.576 330.498 246.576 321.237C246.576 311.976 239.068 304.468 229.806 304.468C220.545 304.468 213.037 311.976 213.037 321.237C213.037 330.498 220.545 338.006 229.806 338.006Z" fill="#FFB8B8"/>
<path d="M212.591 401.911L185.603 381.826L204.009 368.744C203.482 367.05 201.147 357.363 213.92 350.76C217.963 348.67 220.876 346.871 222.577 345.413C224.992 343.33 228.085 342.202 231.274 342.241C233.285 342.273 235.26 342.772 237.043 343.699C238.827 344.626 240.371 345.956 241.552 347.583C242.733 349.21 243.519 351.089 243.848 353.072C244.178 355.056 244.041 357.088 243.449 359.01C240.785 367.667 236.543 379.139 231.456 384.625C225.702 390.824 219.462 396.553 212.795 401.757L212.591 401.911Z" fill="#F9A826"/>
<path d="M74.2967 409.328L71.6025 401.403L100.889 387.24L104.865 398.937L74.2967 409.328Z" fill="#FFB8B8"/>
<path d="M67.2991 413.961L58.6123 388.408L58.9355 388.298C60.2416 387.854 61.6225 387.671 62.9991 387.761C64.3758 387.851 65.7213 388.21 66.9589 388.82C68.1964 389.43 69.3018 390.277 70.2119 391.314C71.122 392.35 71.819 393.556 72.263 394.863L77.5687 410.47L67.2991 413.961Z" fill="#2F2E41"/>
<path d="M190.528 414.984C184.247 415.337 177.984 414.026 172.372 411.183L137.935 387.755L97.7238 402.645C96.6564 403.009 95.491 402.953 94.4629 402.49C93.4348 402.027 92.6206 401.192 92.1847 400.152L90.2139 395.412C89.7644 394.345 89.7515 393.145 90.1779 392.069C90.6042 390.994 91.4359 390.128 92.4938 389.66L130.91 372.408C135.523 370.344 140.697 369.896 145.595 371.137L198.927 384.728L213.024 401.469L212.867 401.685C205.947 411.233 197.738 414.463 190.528 414.984Z" fill="#2F2E41"/>
<path d="M182.789 359.501C182.997 359.816 183.181 360.147 183.338 360.491L216.76 365.919L221.972 359.555L232.605 366.165L224.473 378.328C223.816 379.311 222.858 380.054 221.743 380.446C220.628 380.838 219.416 380.857 218.288 380.501L181.552 368.908C180.455 369.864 179.092 370.463 177.646 370.626C176.2 370.789 174.738 370.508 173.456 369.82C172.173 369.132 171.131 368.07 170.466 366.775C169.802 365.48 169.548 364.013 169.738 362.57C169.928 361.127 170.552 359.776 171.528 358.697C172.505 357.617 173.786 356.861 175.203 356.528C176.62 356.195 178.104 356.301 179.459 356.832C180.814 357.363 181.976 358.294 182.789 359.501Z" fill="#FFB8B8"/>
<path d="M216.538 364.195C216.467 363.759 216.491 363.313 216.608 362.887C216.726 362.462 216.933 362.066 217.218 361.728L227.136 349.921C228.319 347.997 230.217 346.62 232.414 346.093C234.61 345.566 236.926 345.931 238.854 347.109C240.781 348.287 242.163 350.181 242.697 352.376C243.23 354.571 242.871 356.888 241.699 358.819L235.613 373.042C235.439 373.447 235.18 373.811 234.853 374.108C234.526 374.405 234.139 374.627 233.718 374.761C233.298 374.895 232.853 374.936 232.415 374.882C231.976 374.829 231.555 374.681 231.179 374.45L217.961 366.321C217.585 366.09 217.263 365.78 217.017 365.413C216.772 365.046 216.608 364.631 216.538 364.195Z" fill="#F9A826"/>
<path d="M225.323 339.705C230.196 333.436 232.898 325.752 233.022 317.813C230.728 319.517 228.132 320.771 225.371 321.508C222.441 322.289 219.22 322.446 216.46 321.189C212.576 319.419 210.279 314.907 210.72 310.662C211.161 306.417 214.094 302.625 217.914 300.721C221.824 298.893 226.284 298.623 230.386 299.966C232.556 298.118 235.213 296.935 238.039 296.558C240.864 296.18 243.739 296.626 246.318 297.84C252.253 300.754 255.536 307.5 256.105 314.087C256.675 320.675 254.982 327.225 253.304 333.62L253.115 334.343C252.592 336.334 251.074 340.154 251.074 340.154C251.074 340.154 242.255 338.414 238.752 337.299C233.674 339.134 225.323 339.705 225.323 339.705Z" fill="#2F2E41"/>
<path d="M183.288 341.312L176.103 341.832C175.923 341.845 175.744 341.786 175.607 341.667C175.47 341.549 175.386 341.381 175.373 341.2C175.36 341.02 175.419 340.841 175.537 340.704C175.656 340.567 175.824 340.483 176.005 340.47L183.19 339.95C183.279 339.943 183.369 339.954 183.455 339.983C183.54 340.011 183.619 340.055 183.687 340.114C183.755 340.173 183.81 340.244 183.851 340.325C183.891 340.405 183.915 340.492 183.921 340.582C183.928 340.671 183.917 340.761 183.888 340.846C183.86 340.932 183.815 341.01 183.756 341.078C183.698 341.146 183.626 341.202 183.546 341.242C183.465 341.282 183.378 341.306 183.288 341.312Z" fill="#3F3D56"/>
<path d="M183.532 344.716L176.347 345.236C176.257 345.243 176.167 345.232 176.082 345.204C175.997 345.176 175.918 345.131 175.85 345.072C175.782 345.013 175.726 344.942 175.686 344.862C175.646 344.782 175.622 344.694 175.615 344.605C175.609 344.515 175.62 344.425 175.648 344.34C175.676 344.255 175.721 344.176 175.78 344.108C175.839 344.04 175.911 343.985 175.991 343.945C176.071 343.904 176.159 343.881 176.248 343.874L183.433 343.354C183.614 343.341 183.792 343.4 183.929 343.519C184.066 343.637 184.151 343.805 184.164 343.986C184.177 344.167 184.118 344.345 183.999 344.482C183.881 344.619 183.713 344.703 183.532 344.716Z" fill="#3F3D56"/>
<path d="M183.779 348.122L176.594 348.641C176.413 348.654 176.235 348.595 176.099 348.476C175.962 348.358 175.878 348.19 175.865 348.01C175.852 347.829 175.911 347.651 176.029 347.514C176.147 347.377 176.315 347.293 176.495 347.279L183.68 346.76C183.861 346.747 184.039 346.806 184.176 346.924C184.313 347.043 184.398 347.211 184.411 347.391C184.424 347.572 184.365 347.75 184.246 347.887C184.128 348.024 183.96 348.108 183.779 348.122Z" fill="#3F3D56"/>
<path d="M102.255 255.247H33.2962C31.667 255.245 30.1052 254.597 28.9532 253.445C27.8012 252.293 27.1532 250.731 27.1514 249.102V189.702C27.1532 188.073 27.8012 186.511 28.9532 185.359C30.1052 184.207 31.667 183.559 33.2962 183.557H102.255C103.884 183.559 105.446 184.207 106.598 185.359C107.75 186.511 108.398 188.073 108.399 189.702V249.102C108.398 250.731 107.75 252.293 106.598 253.445C105.446 254.597 103.884 255.245 102.255 255.247ZM33.2962 184.923C32.0291 184.924 30.8143 185.428 29.9183 186.324C29.0223 187.22 28.5183 188.435 28.5169 189.702V249.102C28.5183 250.369 29.0223 251.584 29.9183 252.48C30.8143 253.376 32.0291 253.88 33.2962 253.881H102.255C103.522 253.88 104.736 253.376 105.632 252.48C106.528 251.584 107.032 250.369 107.034 249.102V189.702C107.032 188.435 106.528 187.22 105.632 186.324C104.736 185.428 103.522 184.924 102.255 184.923H33.2962Z" fill="#F2F2F2"/>
<path d="M92.1716 246.029H43.3776C41.839 246.028 40.3639 245.416 39.2759 244.328C38.1879 243.24 37.5759 241.765 37.5742 240.226V198.578C37.5759 197.039 38.1879 195.564 39.2759 194.476C40.3639 193.388 41.839 192.776 43.3776 192.774H92.1716C93.7102 192.776 95.1853 193.388 96.2733 194.476C97.3613 195.564 97.9733 197.039 97.975 198.578V240.226C97.9733 241.765 97.3613 243.24 96.2733 244.328C95.1853 245.416 93.7102 246.028 92.1716 246.029Z" fill="#E6E6E6"/>
<path d="M68.1179 174.682C70.0033 174.682 71.5317 173.153 71.5317 171.268C71.5317 169.382 70.0033 167.854 68.1179 167.854C66.2325 167.854 64.7041 169.382 64.7041 171.268C64.7041 173.153 66.2325 174.682 68.1179 174.682Z" fill="#F2F2F2"/>
<path d="M75.2928 184.591L68.1171 172.6L60.9822 184.589L59.8086 183.891L68.1136 169.936L76.4644 183.889L75.2928 184.591Z" fill="#F2F2F2"/>
<path d="M75.9671 214.622C75.9652 213.589 75.8518 212.559 75.6287 211.55H65.3843C64.66 211.55 63.9654 211.838 63.4532 212.35C62.9411 212.862 62.6533 213.557 62.6533 214.281V228.908C66.2677 228.652 69.6506 227.035 72.1209 224.385C74.5912 221.734 75.9656 218.246 75.9671 214.622Z" fill="#F9A826"/>
<path d="M61.6324 229.643C58.7994 229.644 56.0238 228.844 53.6261 227.335C51.2284 225.825 49.3064 223.669 48.0819 221.114C46.8574 218.56 46.3804 215.711 46.7059 212.896C47.0315 210.082 48.1462 207.417 49.9216 205.209C51.697 203.002 54.0605 201.341 56.7394 200.419C59.4183 199.497 62.3033 199.352 65.0613 199.999C67.8193 200.647 70.3379 202.062 72.3264 204.08C74.3148 206.098 75.692 208.637 76.299 211.404L76.4801 212.233H65.3876C64.8446 212.233 64.3239 212.449 63.9399 212.833C63.5559 213.217 63.3399 213.738 63.3393 214.281V229.545L62.5862 229.598C62.2702 229.621 61.9542 229.643 61.6324 229.643ZM61.6324 200.967C58.0109 200.967 54.5376 202.406 51.9768 204.967C49.416 207.527 47.9773 211.001 47.9773 214.622C47.9773 218.244 49.416 221.717 51.9768 224.278C54.5376 226.839 58.0109 228.277 61.6324 228.277C61.747 228.277 61.8606 228.274 61.9738 228.269V214.281C61.9749 213.376 62.3349 212.508 62.9748 211.868C63.6148 211.228 64.4825 210.868 65.3876 210.867H74.7561C73.9291 208.022 72.2042 205.521 69.839 203.737C67.4738 201.952 64.5951 200.981 61.6324 200.967Z" fill="white"/>
<path d="M81.7697 234.081H65.3835C64.4784 234.08 63.6107 233.72 62.9707 233.08C62.3308 232.44 61.9708 231.573 61.9697 230.668V228.273L62.6042 228.228C64.5589 228.093 66.4614 227.538 68.1819 226.6C69.9024 225.663 71.4003 224.365 72.5733 222.796C73.7464 221.226 74.5669 219.422 74.979 217.507C75.391 215.591 75.3848 213.609 74.9609 211.696L74.7797 210.868H81.7697C82.6747 210.869 83.5424 211.229 84.1824 211.869C84.8224 212.509 85.1824 213.376 85.1834 214.281V230.668C85.1824 231.573 84.8224 232.44 84.1824 233.08C83.5424 233.72 82.6747 234.08 81.7697 234.081ZM63.3352 229.531V230.668C63.3358 231.211 63.5518 231.731 63.9358 232.115C64.3198 232.499 64.8405 232.715 65.3835 232.716H81.7697C82.3127 232.715 82.8333 232.499 83.2173 232.115C83.6013 231.731 83.8173 231.211 83.8179 230.668V214.281C83.8173 213.738 83.6013 213.218 83.2173 212.834C82.8333 212.45 82.3127 212.234 81.7697 212.233H76.4529C76.5824 213.023 76.648 213.822 76.649 214.623C76.6364 218.306 75.2747 221.857 72.8215 224.604C70.3682 227.351 66.9935 229.104 63.3352 229.531Z" fill="white"/>
<path d="M87.7421 91H81.5261L74.9461 81.032V91H68.7301V71.176H74.9461L81.5261 81.312V71.176H87.7421V91ZM98.0544 91.196C96.4677 91.196 95.0397 90.8693 93.7704 90.216C92.5011 89.5627 91.5024 88.6293 90.7744 87.416C90.0651 86.184 89.7104 84.7467 89.7104 83.104C89.7104 81.4613 90.0651 80.0333 90.7744 78.82C91.5024 77.588 92.5011 76.6453 93.7704 75.992C95.0397 75.3387 96.4677 75.012 98.0544 75.012C99.6411 75.012 101.069 75.3387 102.338 75.992C103.608 76.6453 104.597 77.588 105.306 78.82C106.034 80.0333 106.398 81.4613 106.398 83.104C106.398 84.7467 106.034 86.184 105.306 87.416C104.597 88.6293 103.608 89.5627 102.338 90.216C101.069 90.8693 99.6411 91.196 98.0544 91.196ZM98.0544 85.82C98.6331 85.82 99.1184 85.596 99.5104 85.148C99.9024 84.6813 100.098 84 100.098 83.104C100.098 82.208 99.9024 81.536 99.5104 81.088C99.1184 80.6213 98.6331 80.388 98.0544 80.388C97.4757 80.388 96.9904 80.6213 96.5984 81.088C96.2064 81.536 96.0104 82.208 96.0104 83.104C96.0104 84 96.1971 84.6813 96.5704 85.148C96.9624 85.596 97.4571 85.82 98.0544 85.82ZM132.319 75.208L128.567 91H121.567L119.663 82.096L117.647 91H110.647L106.923 75.208H113.083L114.399 84.812L116.443 75.208H123.079L125.235 84.924L126.579 75.208H132.319ZM144.618 77.364C145.01 76.636 145.57 76.0667 146.298 75.656C147.045 75.2267 147.931 75.012 148.958 75.012C150.19 75.012 151.301 75.3387 152.29 75.992C153.279 76.6267 154.054 77.56 154.614 78.792C155.193 80.0053 155.482 81.4427 155.482 83.104C155.482 84.7653 155.193 86.212 154.614 87.444C154.054 88.6573 153.279 89.5907 152.29 90.244C151.301 90.8787 150.19 91.196 148.958 91.196C147.931 91.196 147.045 90.9907 146.298 90.58C145.57 90.1507 145.01 89.572 144.618 88.844V91H138.402V70.28H144.618V77.364ZM149.182 83.104C149.182 82.264 148.967 81.6107 148.538 81.144C148.109 80.6773 147.558 80.444 146.886 80.444C146.214 80.444 145.663 80.6773 145.234 81.144C144.805 81.6107 144.59 82.264 144.59 83.104C144.59 83.944 144.805 84.5973 145.234 85.064C145.663 85.5307 146.214 85.764 146.886 85.764C147.558 85.764 148.109 85.5307 148.538 85.064C148.967 84.5973 149.182 83.944 149.182 83.104ZM156.593 83.104C156.593 81.4427 156.873 80.0053 157.433 78.792C158.012 77.56 158.796 76.6267 159.785 75.992C160.775 75.3387 161.885 75.012 163.117 75.012C164.144 75.012 165.031 75.2267 165.777 75.656C166.524 76.0667 167.093 76.636 167.485 77.364V75.208H173.673V91H167.485V88.844C167.093 89.572 166.524 90.1507 165.777 90.58C165.031 90.9907 164.144 91.196 163.117 91.196C161.885 91.196 160.775 90.8787 159.785 90.244C158.796 89.5907 158.012 88.6573 157.433 87.444C156.873 86.212 156.593 84.7653 156.593 83.104ZM167.485 83.104C167.485 82.264 167.271 81.6107 166.841 81.144C166.412 80.6773 165.861 80.444 165.189 80.444C164.517 80.444 163.967 80.6773 163.537 81.144C163.108 81.6107 162.893 82.264 162.893 83.104C162.893 83.944 163.108 84.5973 163.537 85.064C163.967 85.5307 164.517 85.764 165.189 85.764C165.861 85.764 166.412 85.5307 166.841 85.064C167.271 84.5973 167.485 83.944 167.485 83.104ZM182.68 78.12C183.315 77.2053 184.09 76.4773 185.004 75.936C185.919 75.376 186.871 75.096 187.86 75.096V81.732H186.096C184.92 81.732 184.052 81.9373 183.492 82.348C182.951 82.7587 182.68 83.4867 182.68 84.532V91H176.464V75.208H182.68V78.12ZM195.219 75.012C196.245 75.012 197.132 75.2267 197.879 75.656C198.625 76.0667 199.195 76.636 199.587 77.364V75.208H205.775V90.72C205.775 92.1947 205.504 93.5387 204.963 94.752C204.421 95.9653 203.544 96.936 202.331 97.664C201.136 98.392 199.596 98.756 197.711 98.756C195.172 98.756 193.156 98.1587 191.663 96.964C190.188 95.788 189.348 94.1827 189.143 92.148H195.247C195.415 92.9693 196.087 93.38 197.263 93.38C197.991 93.38 198.56 93.1933 198.971 92.82C199.381 92.4467 199.587 91.7467 199.587 90.72V88.844C199.195 89.572 198.625 90.1507 197.879 90.58C197.132 90.9907 196.245 91.196 195.219 91.196C193.987 91.196 192.876 90.8787 191.887 90.244C190.897 89.5907 190.113 88.6573 189.535 87.444C188.975 86.212 188.695 84.7653 188.695 83.104C188.695 81.4427 188.975 80.0053 189.535 78.792C190.113 77.56 190.897 76.6267 191.887 75.992C192.876 75.3387 193.987 75.012 195.219 75.012ZM199.587 83.104C199.587 82.264 199.372 81.6107 198.943 81.144C198.513 80.6773 197.963 80.444 197.291 80.444C196.619 80.444 196.068 80.6773 195.639 81.144C195.209 81.6107 194.995 82.264 194.995 83.104C194.995 83.944 195.209 84.5973 195.639 85.064C196.068 85.5307 196.619 85.764 197.291 85.764C197.963 85.764 198.513 85.5307 198.943 85.064C199.372 84.5973 199.587 83.944 199.587 83.104ZM207.726 83.104C207.726 81.4427 208.006 80.0053 208.566 78.792C209.145 77.56 209.929 76.6267 210.918 75.992C211.907 75.3387 213.018 75.012 214.25 75.012C215.277 75.012 216.163 75.2267 216.91 75.656C217.657 76.0667 218.226 76.636 218.618 77.364V75.208H224.806V91H218.618V88.844C218.226 89.572 217.657 90.1507 216.91 90.58C216.163 90.9907 215.277 91.196 214.25 91.196C213.018 91.196 211.907 90.8787 210.918 90.244C209.929 89.5907 209.145 88.6573 208.566 87.444C208.006 86.212 207.726 84.7653 207.726 83.104ZM218.618 83.104C218.618 82.264 218.403 81.6107 217.974 81.144C217.545 80.6773 216.994 80.444 216.322 80.444C215.65 80.444 215.099 80.6773 214.67 81.144C214.241 81.6107 214.026 82.264 214.026 83.104C214.026 83.944 214.241 84.5973 214.67 85.064C215.099 85.5307 215.65 85.764 216.322 85.764C216.994 85.764 217.545 85.5307 217.974 85.064C218.403 84.5973 218.618 83.944 218.618 83.104ZM230.733 73.948C229.651 73.948 228.783 73.6587 228.129 73.08C227.476 72.5013 227.149 71.7733 227.149 70.896C227.149 70 227.476 69.2627 228.129 68.684C228.783 68.0867 229.651 67.788 230.733 67.788C231.797 67.788 232.656 68.0867 233.309 68.684C233.963 69.2627 234.289 70 234.289 70.896C234.289 71.7733 233.963 72.5013 233.309 73.08C232.656 73.6587 231.797 73.948 230.733 73.948ZM233.813 75.208V91H227.597V75.208H233.813ZM247.681 75.096C249.491 75.096 250.901 75.7027 251.909 76.916C252.935 78.1293 253.449 79.772 253.449 81.844V91H247.261V82.628C247.261 81.8813 247.055 81.2933 246.645 80.864C246.253 80.416 245.721 80.192 245.049 80.192C244.358 80.192 243.817 80.416 243.425 80.864C243.033 81.2933 242.837 81.8813 242.837 82.628V91H236.621V75.208H242.837V77.616C243.322 76.8693 243.966 76.2627 244.769 75.796C245.59 75.3293 246.561 75.096 247.681 75.096ZM259.28 73.948C258.197 73.948 257.329 73.6587 256.676 73.08C256.023 72.5013 255.696 71.7733 255.696 70.896C255.696 70 256.023 69.2627 256.676 68.684C257.329 68.0867 258.197 67.788 259.28 67.788C260.344 67.788 261.203 68.0867 261.856 68.684C262.509 69.2627 262.836 70 262.836 70.896C262.836 71.7733 262.509 72.5013 261.856 73.08C261.203 73.6587 260.344 73.948 259.28 73.948ZM262.36 75.208V91H256.144V75.208H262.36ZM276.228 75.096C278.038 75.096 279.448 75.7027 280.456 76.916C281.482 78.1293 281.996 79.772 281.996 81.844V91H275.808V82.628C275.808 81.8813 275.602 81.2933 275.192 80.864C274.8 80.416 274.268 80.192 273.596 80.192C272.905 80.192 272.364 80.416 271.972 80.864C271.58 81.2933 271.384 81.8813 271.384 82.628V91H265.168V75.208H271.384V77.616C271.869 76.8693 272.513 76.2627 273.316 75.796C274.137 75.3293 275.108 75.096 276.228 75.096ZM290.375 75.012C291.402 75.012 292.288 75.2267 293.035 75.656C293.782 76.0667 294.351 76.636 294.743 77.364V75.208H300.931V90.72C300.931 92.1947 300.66 93.5387 300.119 94.752C299.578 95.9653 298.7 96.936 297.487 97.664C296.292 98.392 294.752 98.756 292.867 98.756C290.328 98.756 288.312 98.1587 286.819 96.964C285.344 95.788 284.504 94.1827 284.299 92.148H290.403C290.571 92.9693 291.243 93.38 292.419 93.38C293.147 93.38 293.716 93.1933 294.127 92.82C294.538 92.4467 294.743 91.7467 294.743 90.72V88.844C294.351 89.572 293.782 90.1507 293.035 90.58C292.288 90.9907 291.402 91.196 290.375 91.196C289.143 91.196 288.032 90.8787 287.043 90.244C286.054 89.5907 285.27 88.6573 284.691 87.444C284.131 86.212 283.851 84.7653 283.851 83.104C283.851 81.4427 284.131 80.0053 284.691 78.792C285.27 77.56 286.054 76.6267 287.043 75.992C288.032 75.3387 289.143 75.012 290.375 75.012ZM294.743 83.104C294.743 82.264 294.528 81.6107 294.099 81.144C293.67 80.6773 293.119 80.444 292.447 80.444C291.775 80.444 291.224 80.6773 290.795 81.144C290.366 81.6107 290.151 82.264 290.151 83.104C290.151 83.944 290.366 84.5973 290.795 85.064C291.224 85.5307 291.775 85.764 292.447 85.764C293.119 85.764 293.67 85.5307 294.099 85.064C294.528 84.5973 294.743 83.944 294.743 83.104ZM311.616 73.948C310.533 73.948 309.665 73.6587 309.012 73.08C308.359 72.5013 308.032 71.7733 308.032 70.896C308.032 70 308.359 69.2627 309.012 68.684C309.665 68.0867 310.533 67.788 311.616 67.788C312.68 67.788 313.539 68.0867 314.192 68.684C314.845 69.2627 315.172 70 315.172 70.896C315.172 71.7733 314.845 72.5013 314.192 73.08C313.539 73.6587 312.68 73.948 311.616 73.948ZM314.696 75.208V91H308.48V75.208H314.696ZM324.532 91.196C323.038 91.196 321.713 90.9533 320.556 90.468C319.417 89.9827 318.512 89.3107 317.84 88.452C317.168 87.5933 316.785 86.6227 316.692 85.54H322.656C322.73 86.0067 322.926 86.352 323.244 86.576C323.58 86.8 324 86.912 324.504 86.912C324.821 86.912 325.073 86.8467 325.26 86.716C325.446 86.5667 325.54 86.3893 325.54 86.184C325.54 85.8293 325.344 85.5773 324.952 85.428C324.56 85.2787 323.897 85.1107 322.964 84.924C321.825 84.7 320.882 84.4573 320.136 84.196C319.408 83.9347 318.764 83.4867 318.204 82.852C317.662 82.2173 317.392 81.34 317.392 80.22C317.392 79.2493 317.644 78.372 318.148 77.588C318.67 76.7853 319.436 76.16 320.444 75.712C321.452 75.2453 322.674 75.012 324.112 75.012C326.24 75.012 327.901 75.5347 329.096 76.58C330.309 77.6253 331.037 78.988 331.28 80.668H325.764C325.67 80.2387 325.474 79.912 325.176 79.688C324.877 79.4453 324.476 79.324 323.972 79.324C323.654 79.324 323.412 79.3893 323.244 79.52C323.076 79.632 322.992 79.8093 322.992 80.052C322.992 80.3693 323.188 80.612 323.58 80.78C323.972 80.9293 324.597 81.088 325.456 81.256C326.594 81.48 327.556 81.732 328.34 82.012C329.124 82.292 329.805 82.7773 330.384 83.468C330.962 84.14 331.252 85.0733 331.252 86.268C331.252 87.2013 330.981 88.0413 330.44 88.788C329.898 89.5347 329.114 90.1227 328.088 90.552C327.08 90.9813 325.894 91.196 324.532 91.196ZM344.692 77.364C345.084 76.636 345.644 76.0667 346.372 75.656C347.119 75.2267 348.006 75.012 349.032 75.012C350.264 75.012 351.375 75.3387 352.364 75.992C353.354 76.6267 354.128 77.56 354.688 78.792C355.267 80.0053 355.556 81.4427 355.556 83.104C355.556 84.7653 355.267 86.212 354.688 87.444C354.128 88.6573 353.354 89.5907 352.364 90.244C351.375 90.8787 350.264 91.196 349.032 91.196C348.006 91.196 347.119 90.9907 346.372 90.58C345.644 90.1507 345.084 89.572 344.692 88.844V98.56H338.476V75.208H344.692V77.364ZM349.256 83.104C349.256 82.264 349.042 81.6107 348.612 81.144C348.183 80.6773 347.632 80.444 346.96 80.444C346.288 80.444 345.738 80.6773 345.308 81.144C344.879 81.6107 344.664 82.264 344.664 83.104C344.664 83.944 344.879 84.5973 345.308 85.064C345.738 85.5307 346.288 85.764 346.96 85.764C347.632 85.764 348.183 85.5307 348.612 85.064C349.042 84.5973 349.256 83.944 349.256 83.104ZM365.011 91.196C363.425 91.196 361.997 90.8693 360.727 90.216C359.458 89.5627 358.459 88.6293 357.731 87.416C357.022 86.184 356.667 84.7467 356.667 83.104C356.667 81.4613 357.022 80.0333 357.731 78.82C358.459 77.588 359.458 76.6453 360.727 75.992C361.997 75.3387 363.425 75.012 365.011 75.012C366.598 75.012 368.026 75.3387 369.295 75.992C370.565 76.6453 371.554 77.588 372.263 78.82C372.991 80.0333 373.355 81.4613 373.355 83.104C373.355 84.7467 372.991 86.184 372.263 87.416C371.554 88.6293 370.565 89.5627 369.295 90.216C368.026 90.8693 366.598 91.196 365.011 91.196ZM365.011 85.82C365.59 85.82 366.075 85.596 366.467 85.148C366.859 84.6813 367.055 84 367.055 83.104C367.055 82.208 366.859 81.536 366.467 81.088C366.075 80.6213 365.59 80.388 365.011 80.388C364.433 80.388 363.947 80.6213 363.555 81.088C363.163 81.536 362.967 82.208 362.967 83.104C362.967 84 363.154 84.6813 363.527 85.148C363.919 85.596 364.414 85.82 365.011 85.82ZM382.336 91.196C380.843 91.196 379.518 90.9533 378.36 90.468C377.222 89.9827 376.316 89.3107 375.644 88.452C374.972 87.5933 374.59 86.6227 374.496 85.54H380.46C380.535 86.0067 380.731 86.352 381.048 86.576C381.384 86.8 381.804 86.912 382.308 86.912C382.626 86.912 382.878 86.8467 383.064 86.716C383.251 86.5667 383.344 86.3893 383.344 86.184C383.344 85.8293 383.148 85.5773 382.756 85.428C382.364 85.2787 381.702 85.1107 380.768 84.924C379.63 84.7 378.687 84.4573 377.94 84.196C377.212 83.9347 376.568 83.4867 376.008 82.852C375.467 82.2173 375.196 81.34 375.196 80.22C375.196 79.2493 375.448 78.372 375.952 77.588C376.475 76.7853 377.24 76.16 378.248 75.712C379.256 75.2453 380.479 75.012 381.916 75.012C384.044 75.012 385.706 75.5347 386.9 76.58C388.114 77.6253 388.842 78.988 389.084 80.668H383.568C383.475 80.2387 383.279 79.912 382.98 79.688C382.682 79.4453 382.28 79.324 381.776 79.324C381.459 79.324 381.216 79.3893 381.048 79.52C380.88 79.632 380.796 79.8093 380.796 80.052C380.796 80.3693 380.992 80.612 381.384 80.78C381.776 80.9293 382.402 81.088 383.26 81.256C384.399 81.48 385.36 81.732 386.144 82.012C386.928 82.292 387.61 82.7773 388.188 83.468C388.767 84.14 389.056 85.0733 389.056 86.268C389.056 87.2013 388.786 88.0413 388.244 88.788C387.703 89.5347 386.919 90.1227 385.892 90.552C384.884 90.9813 383.699 91.196 382.336 91.196ZM398.551 91.196C397.058 91.196 395.732 90.9533 394.575 90.468C393.436 89.9827 392.531 89.3107 391.859 88.452C391.187 87.5933 390.804 86.6227 390.711 85.54H396.675C396.75 86.0067 396.946 86.352 397.263 86.576C397.599 86.8 398.019 86.912 398.523 86.912C398.84 86.912 399.092 86.8467 399.279 86.716C399.466 86.5667 399.559 86.3893 399.559 86.184C399.559 85.8293 399.363 85.5773 398.971 85.428C398.579 85.2787 397.916 85.1107 396.983 84.924C395.844 84.7 394.902 84.4573 394.155 84.196C393.427 83.9347 392.783 83.4867 392.223 82.852C391.682 82.2173 391.411 81.34 391.411 80.22C391.411 79.2493 391.663 78.372 392.167 77.588C392.69 76.7853 393.455 76.16 394.463 75.712C395.471 75.2453 396.694 75.012 398.131 75.012C400.259 75.012 401.92 75.5347 403.115 76.58C404.328 77.6253 405.056 78.988 405.299 80.668H399.783C399.69 80.2387 399.494 79.912 399.195 79.688C398.896 79.4453 398.495 79.324 397.991 79.324C397.674 79.324 397.431 79.3893 397.263 79.52C397.095 79.632 397.011 79.8093 397.011 80.052C397.011 80.3693 397.207 80.612 397.599 80.78C397.991 80.9293 398.616 81.088 399.475 81.256C400.614 81.48 401.575 81.732 402.359 82.012C403.143 82.292 403.824 82.7773 404.403 83.468C404.982 84.14 405.271 85.0733 405.271 86.268C405.271 87.2013 405 88.0413 404.459 88.788C403.918 89.5347 403.134 90.1227 402.107 90.552C401.099 90.9813 399.914 91.196 398.551 91.196ZM410.874 73.948C409.791 73.948 408.923 73.6587 408.27 73.08C407.617 72.5013 407.29 71.7733 407.29 70.896C407.29 70 407.617 69.2627 408.27 68.684C408.923 68.0867 409.791 67.788 410.874 67.788C411.938 67.788 412.797 68.0867 413.45 68.684C414.103 69.2627 414.43 70 414.43 70.896C414.43 71.7733 414.103 72.5013 413.45 73.08C412.797 73.6587 411.938 73.948 410.874 73.948ZM413.954 75.208V91H407.738V75.208H413.954ZM422.977 77.364C423.369 76.636 423.929 76.0667 424.657 75.656C425.404 75.2267 426.291 75.012 427.317 75.012C428.549 75.012 429.66 75.3387 430.649 75.992C431.639 76.6267 432.413 77.56 432.973 78.792C433.552 80.0053 433.841 81.4427 433.841 83.104C433.841 84.7653 433.552 86.212 432.973 87.444C432.413 88.6573 431.639 89.5907 430.649 90.244C429.66 90.8787 428.549 91.196 427.317 91.196C426.291 91.196 425.404 90.9907 424.657 90.58C423.929 90.1507 423.369 89.572 422.977 88.844V91H416.761V70.28H422.977V77.364ZM427.541 83.104C427.541 82.264 427.327 81.6107 426.897 81.144C426.468 80.6773 425.917 80.444 425.245 80.444C424.573 80.444 424.023 80.6773 423.593 81.144C423.164 81.6107 422.949 82.264 422.949 83.104C422.949 83.944 423.164 84.5973 423.593 85.064C424.023 85.5307 424.573 85.764 425.245 85.764C425.917 85.764 426.468 85.5307 426.897 85.064C427.327 84.5973 427.541 83.944 427.541 83.104ZM442.009 70.28V91H435.793V70.28H442.009ZM460.104 82.964C460.104 83.3933 460.076 83.804 460.02 84.196H450.024C450.117 85.5587 450.687 86.24 451.732 86.24C452.404 86.24 452.889 85.932 453.188 85.316H459.768C459.544 86.436 459.068 87.444 458.34 88.34C457.631 89.2173 456.725 89.9173 455.624 90.44C454.541 90.944 453.347 91.196 452.04 91.196C450.472 91.196 449.072 90.8693 447.84 90.216C446.627 89.5627 445.675 88.6293 444.984 87.416C444.312 86.184 443.976 84.7467 443.976 83.104C443.976 81.4613 444.312 80.0333 444.984 78.82C445.675 77.588 446.627 76.6453 447.84 75.992C449.072 75.3387 450.472 75.012 452.04 75.012C453.608 75.012 454.999 75.3387 456.212 75.992C457.444 76.6267 458.396 77.5413 459.068 78.736C459.759 79.9307 460.104 81.34 460.104 82.964ZM453.804 81.48C453.804 80.9573 453.636 80.5653 453.3 80.304C452.964 80.024 452.544 79.884 452.04 79.884C450.939 79.884 450.295 80.416 450.108 81.48H453.804ZM144.945 116.088C144.609 116.051 144.376 116.032 144.245 116.032C143.779 116.032 143.424 116.125 143.181 116.312C142.939 116.48 142.771 116.779 142.677 117.208H144.945V122.388H142.621V133H136.405V122.388H134.725V117.208H136.405C136.443 115.155 137.087 113.568 138.337 112.448C139.607 111.309 141.38 110.74 143.657 110.74C143.919 110.74 144.348 110.759 144.945 110.796V116.088ZM152.835 120.12C153.469 119.205 154.244 118.477 155.159 117.936C156.073 117.376 157.025 117.096 158.015 117.096V123.732H156.251C155.075 123.732 154.207 123.937 153.647 124.348C153.105 124.759 152.835 125.487 152.835 126.532V133H146.619V117.208H152.835V120.12ZM167.193 133.196C165.606 133.196 164.178 132.869 162.909 132.216C161.64 131.563 160.641 130.629 159.913 129.416C159.204 128.184 158.849 126.747 158.849 125.104C158.849 123.461 159.204 122.033 159.913 120.82C160.641 119.588 161.64 118.645 162.909 117.992C164.178 117.339 165.606 117.012 167.193 117.012C168.78 117.012 170.208 117.339 171.477 117.992C172.746 118.645 173.736 119.588 174.445 120.82C175.173 122.033 175.537 123.461 175.537 125.104C175.537 126.747 175.173 128.184 174.445 129.416C173.736 130.629 172.746 131.563 171.477 132.216C170.208 132.869 168.78 133.196 167.193 133.196ZM167.193 127.82C167.772 127.82 168.257 127.596 168.649 127.148C169.041 126.681 169.237 126 169.237 125.104C169.237 124.208 169.041 123.536 168.649 123.088C168.257 122.621 167.772 122.388 167.193 122.388C166.614 122.388 166.129 122.621 165.737 123.088C165.345 123.536 165.149 124.208 165.149 125.104C165.149 126 165.336 126.681 165.709 127.148C166.101 127.596 166.596 127.82 167.193 127.82ZM198.574 117.096C200.59 117.096 202.149 117.703 203.25 118.916C204.37 120.129 204.93 121.772 204.93 123.844V133H198.742V124.628C198.742 123.956 198.537 123.433 198.126 123.06C197.734 122.668 197.202 122.472 196.53 122.472C195.839 122.472 195.298 122.668 194.906 123.06C194.514 123.433 194.318 123.956 194.318 124.628V133H188.13V124.628C188.13 123.956 187.925 123.433 187.514 123.06C187.122 122.668 186.59 122.472 185.918 122.472C185.227 122.472 184.686 122.668 184.294 123.06C183.902 123.433 183.706 123.956 183.706 124.628V133H177.49V117.208H183.706V119.336C184.154 118.664 184.761 118.123 185.526 117.712C186.31 117.301 187.225 117.096 188.27 117.096C189.409 117.096 190.417 117.348 191.294 117.852C192.171 118.337 192.871 119.028 193.394 119.924C193.973 119.103 194.71 118.431 195.606 117.908C196.502 117.367 197.491 117.096 198.574 117.096ZM230.216 117.208L220.108 140.56H213.304L217.28 132.216L210.7 117.208H217.616L220.584 125.216L223.356 117.208H230.216ZM238.834 133.196C237.247 133.196 235.819 132.869 234.55 132.216C233.28 131.563 232.282 130.629 231.554 129.416C230.844 128.184 230.49 126.747 230.49 125.104C230.49 123.461 230.844 122.033 231.554 120.82C232.282 119.588 233.28 118.645 234.55 117.992C235.819 117.339 237.247 117.012 238.834 117.012C240.42 117.012 241.848 117.339 243.118 117.992C244.387 118.645 245.376 119.588 246.086 120.82C246.814 122.033 247.178 123.461 247.178 125.104C247.178 126.747 246.814 128.184 246.086 129.416C245.376 130.629 244.387 131.563 243.118 132.216C241.848 132.869 240.42 133.196 238.834 133.196ZM238.834 127.82C239.412 127.82 239.898 127.596 240.29 127.148C240.682 126.681 240.878 126 240.878 125.104C240.878 124.208 240.682 123.536 240.29 123.088C239.898 122.621 239.412 122.388 238.834 122.388C238.255 122.388 237.77 122.621 237.378 123.088C236.986 123.536 236.79 124.208 236.79 125.104C236.79 126 236.976 126.681 237.35 127.148C237.742 127.596 238.236 127.82 238.834 127.82ZM265.846 117.208V133H259.63V130.592C259.145 131.339 258.492 131.945 257.67 132.412C256.868 132.879 255.906 133.112 254.786 133.112C252.976 133.112 251.557 132.505 250.53 131.292C249.522 130.079 249.018 128.436 249.018 126.364V117.208H255.206V125.58C255.206 126.327 255.402 126.924 255.794 127.372C256.205 127.801 256.746 128.016 257.418 128.016C258.109 128.016 258.65 127.801 259.042 127.372C259.434 126.924 259.63 126.327 259.63 125.58V117.208H265.846ZM274.87 120.12C275.505 119.205 276.279 118.477 277.194 117.936C278.109 117.376 279.061 117.096 280.05 117.096V123.732H278.286C277.11 123.732 276.242 123.937 275.682 124.348C275.141 124.759 274.87 125.487 274.87 126.532V133H268.654V117.208H274.87V120.12ZM285.642 125.104C285.642 123.461 285.978 122.033 286.65 120.82C287.341 119.588 288.293 118.645 289.506 117.992C290.738 117.339 292.138 117.012 293.706 117.012C295.759 117.012 297.486 117.591 298.886 118.748C300.305 119.905 301.201 121.511 301.574 123.564H294.994C294.751 122.743 294.275 122.332 293.566 122.332C293.062 122.332 292.661 122.565 292.362 123.032C292.082 123.499 291.942 124.189 291.942 125.104C291.942 126.019 292.082 126.709 292.362 127.176C292.661 127.643 293.062 127.876 293.566 127.876C294.275 127.876 294.751 127.465 294.994 126.644H301.574C301.201 128.697 300.305 130.303 298.886 131.46C297.486 132.617 295.759 133.196 293.706 133.196C292.138 133.196 290.738 132.869 289.506 132.216C288.293 131.563 287.341 130.629 286.65 129.416C285.978 128.184 285.642 126.747 285.642 125.104ZM311.049 133.196C309.462 133.196 308.034 132.869 306.765 132.216C305.495 131.563 304.497 130.629 303.769 129.416C303.059 128.184 302.705 126.747 302.705 125.104C302.705 123.461 303.059 122.033 303.769 120.82C304.497 119.588 305.495 118.645 306.765 117.992C308.034 117.339 309.462 117.012 311.049 117.012C312.635 117.012 314.063 117.339 315.333 117.992C316.602 118.645 317.591 119.588 318.301 120.82C319.029 122.033 319.393 123.461 319.393 125.104C319.393 126.747 319.029 128.184 318.301 129.416C317.591 130.629 316.602 131.563 315.333 132.216C314.063 132.869 312.635 133.196 311.049 133.196ZM311.049 127.82C311.627 127.82 312.113 127.596 312.505 127.148C312.897 126.681 313.093 126 313.093 125.104C313.093 124.208 312.897 123.536 312.505 123.088C312.113 122.621 311.627 122.388 311.049 122.388C310.47 122.388 309.985 122.621 309.593 123.088C309.201 123.536 309.005 124.208 309.005 125.104C309.005 126 309.191 126.681 309.565 127.148C309.957 127.596 310.451 127.82 311.049 127.82ZM338.061 117.208V133H331.845V130.592C331.36 131.339 330.707 131.945 329.885 132.412C329.083 132.879 328.121 133.112 327.001 133.112C325.191 133.112 323.772 132.505 322.745 131.292C321.737 130.079 321.233 128.436 321.233 126.364V117.208H327.421V125.58C327.421 126.327 327.617 126.924 328.009 127.372C328.42 127.801 328.961 128.016 329.633 128.016C330.324 128.016 330.865 127.801 331.257 127.372C331.649 126.924 331.845 126.327 331.845 125.58V117.208H338.061ZM340.029 125.104C340.029 123.461 340.365 122.033 341.037 120.82C341.727 119.588 342.679 118.645 343.893 117.992C345.125 117.339 346.525 117.012 348.093 117.012C350.146 117.012 351.873 117.591 353.273 118.748C354.691 119.905 355.587 121.511 355.961 123.564H349.381C349.138 122.743 348.662 122.332 347.953 122.332C347.449 122.332 347.047 122.565 346.749 123.032C346.469 123.499 346.329 124.189 346.329 125.104C346.329 126.019 346.469 126.709 346.749 127.176C347.047 127.643 347.449 127.876 347.953 127.876C348.662 127.876 349.138 127.465 349.381 126.644H355.961C355.587 128.697 354.691 130.303 353.273 131.46C351.873 132.617 350.146 133.196 348.093 133.196C346.525 133.196 345.125 132.869 343.893 132.216C342.679 131.563 341.727 130.629 341.037 129.416C340.365 128.184 340.029 126.747 340.029 125.104ZM368.991 117.096C370.802 117.096 372.211 117.703 373.219 118.916C374.246 120.129 374.759 121.772 374.759 123.844V133H368.571V124.628C368.571 123.881 368.366 123.293 367.955 122.864C367.563 122.416 367.031 122.192 366.359 122.192C365.669 122.192 365.127 122.416 364.735 122.864C364.343 123.293 364.147 123.881 364.147 124.628V133H357.931V112.28H364.147V119.616C364.633 118.869 365.277 118.263 366.079 117.796C366.901 117.329 367.871 117.096 368.991 117.096ZM390.585 111.86L389.857 125.132H384.537L383.809 111.86H390.585ZM387.197 133.224C386.114 133.224 385.246 132.935 384.593 132.356C383.939 131.777 383.613 131.049 383.613 130.172C383.613 129.276 383.939 128.539 384.593 127.96C385.246 127.363 386.114 127.064 387.197 127.064C388.261 127.064 389.119 127.363 389.773 127.96C390.426 128.539 390.753 129.276 390.753 130.172C390.753 131.049 390.426 131.777 389.773 132.356C389.119 132.935 388.261 133.224 387.197 133.224Z" fill="#3F3D56"/>
</g>
<defs>
<clipPath id="clip0_1090_165">
<rect width="545" height="424" fill="white"/>
</clipPath>
</defs>
</svg>
