<svg width="545" height="424" viewBox="0 0 545 424" fill="none" xmlns="http://www.w3.org/2000/svg">
<g clip-path="url(#clip0_966_1533)">
<rect width="545" height="424" fill="white"/>
<g filter="url(#filter0_d_966_1533)">
<path d="M421.168 -57.855H49.7526C42.0483 -57.855 35.8027 -48.1647 35.8027 -36.2112V326.322C35.8027 338.275 42.0483 347.966 49.7526 347.966H421.168C428.872 347.966 435.117 338.275 435.117 326.322V-36.2112C435.117 -48.1647 428.872 -57.855 421.168 -57.855Z" fill="white"/>
</g>
<rect y="-75" width="545" height="423.538" rx="24" fill="white"/>
<path d="M14.8054 458.839C13.2992 457.715 11.5389 456.641 10.4107 455.073C1.38934 442.536 -5.29722 429.721 -3.14416 413.884C1.85606 377.105 21.4794 359.322 53.6283 345.534C71.9378 337.681 87.7562 339.522 101.02 354.766C102.331 356.273 103.016 357.124 103.283 357.468C102.717 356.687 100.555 353.499 99.9186 350.127C97.8854 339.354 102.555 327.309 107.816 318.294C125.518 287.96 164.002 242.227 203.677 246.291C221.106 248.077 229.978 271.138 232.795 285.694C233.566 289.679 235.219 301.657 235.346 297.601C235.619 288.902 237.752 281.985 242.201 274.215C256.262 249.658 282.967 236.064 308.083 225.293C330.22 215.798 355.467 208.784 378.753 218.096C392.824 223.723 399.687 233.949 402.666 248.731C403.072 250.746 402.759 257.453 402.403 262.36C406.49 244.107 430.847 225.259 443.942 216.25C463.25 202.967 500.446 191.298 520.845 208.047C544.104 227.143 556.935 256.142 554.04 286.481C553.334 293.879 550.045 300.686 549.222 307.882C549.072 309.189 548.695 309.668 548.383 309.809C548.794 309.978 549.509 310.383 550.671 311.26C558.928 317.493 565.695 322.293 572.181 331.37C601.252 372.053 620.264 420.729 624.97 470.515C628.286 505.596 612.282 528.709 586.179 551.265C548.159 584.119 500.67 606.451 456.418 629.695C411.027 653.538 357.995 675.42 308.311 687.881C263.809 699.043 218.882 703.034 173.488 708.147C141.286 711.773 108.061 684.381 89.9418 660.974C65.7634 629.74 57.3855 593.114 46.9646 555.067C43.4255 542.146 40.2149 528.969 34.9389 516.667C32.0322 509.89 33.0903 503.033 30.3065 496.542C27.3343 489.612 23.0475 472.031 16.917 466.541C16.4324 466.107 15.9362 465.749 15.4282 465.477C13.4852 464.438 13.8171 461.663 14.8054 458.839Z" fill="#FB8C00"/>
<path d="M3.76152 444.682C2.18344 443.505 0.338997 442.382 -0.84264 440.741C-10.2914 427.618 -17.2928 414.204 -15.0274 397.62C-9.76633 359.106 10.8113 340.474 44.5153 326.02C63.7103 317.787 80.2891 319.706 94.1826 335.66C95.5563 337.237 96.2734 338.128 96.5538 338.488C95.9605 337.671 93.6966 334.335 93.0312 330.803C90.9059 319.525 95.8066 306.91 101.326 297.467C119.897 265.695 160.258 217.787 201.84 222.021C220.108 223.881 229.394 248.024 232.338 263.264C233.144 267.436 234.871 279.977 235.006 275.729C235.297 266.621 237.536 259.377 242.203 251.239C256.955 225.518 284.952 211.269 311.284 199.977C334.492 190.023 360.958 182.665 385.359 192.402C400.104 198.286 407.292 208.99 410.407 224.467C410.831 226.576 410.499 233.6 410.123 238.738C414.418 219.623 439.957 199.874 453.687 190.434C473.931 176.515 512.925 164.276 534.297 181.802C558.664 201.785 572.097 232.142 569.046 263.912C568.302 271.658 564.851 278.788 563.984 286.323C563.827 287.692 563.431 288.193 563.104 288.341C563.534 288.518 564.284 288.942 565.501 289.86C574.152 296.382 581.242 301.404 588.035 310.905C618.483 353.488 638.384 404.445 643.289 456.573C646.746 493.304 629.958 517.514 602.586 541.147C562.719 575.569 512.932 598.978 466.537 623.342C418.949 648.332 363.352 671.274 311.269 684.349C264.619 696.061 217.527 700.265 169.946 705.643C136.191 709.458 101.383 680.794 82.4038 656.294C57.0787 623.603 48.3176 585.256 37.4159 545.424C33.7136 531.896 30.3557 518.101 24.8325 505.222C21.7895 498.127 22.9023 490.947 19.9882 484.152C16.8766 476.897 12.3931 458.49 5.97055 452.745C5.46282 452.291 4.94297 451.916 4.41071 451.632C2.37468 450.545 2.72412 447.639 3.76152 444.682Z" fill="#FB8C00" fill-opacity="0.5"/>
<path d="M111.494 83.836C112.689 84.116 113.613 84.6947 114.266 85.572C114.938 86.4307 115.274 87.4293 115.274 88.568C115.274 90.304 114.696 91.648 113.538 92.6C112.4 93.5333 110.757 94 108.61 94H98.2223V74.176H108.33C110.346 74.176 111.933 74.6147 113.09 75.492C114.248 76.3693 114.826 77.648 114.826 79.328C114.826 80.4853 114.518 81.4653 113.902 82.268C113.305 83.052 112.502 83.5747 111.494 83.836ZM104.438 81.904H106.846C107.406 81.904 107.817 81.792 108.078 81.568C108.358 81.344 108.498 80.9987 108.498 80.532C108.498 80.0467 108.358 79.692 108.078 79.468C107.817 79.2253 107.406 79.104 106.846 79.104H104.438V81.904ZM107.266 89.016C107.826 89.016 108.237 88.9133 108.498 88.708C108.778 88.484 108.918 88.1293 108.918 87.644C108.918 86.692 108.368 86.216 107.266 86.216H104.438V89.016H107.266ZM132.651 85.964C132.651 86.3933 132.623 86.804 132.567 87.196H122.571C122.664 88.5587 123.234 89.24 124.279 89.24C124.951 89.24 125.436 88.932 125.735 88.316H132.315C132.091 89.436 131.615 90.444 130.887 91.34C130.178 92.2173 129.272 92.9173 128.171 93.44C127.088 93.944 125.894 94.196 124.587 94.196C123.019 94.196 121.619 93.8693 120.387 93.216C119.174 92.5627 118.222 91.6293 117.531 90.416C116.859 89.184 116.523 87.7467 116.523 86.104C116.523 84.4613 116.859 83.0333 117.531 81.82C118.222 80.588 119.174 79.6453 120.387 78.992C121.619 78.3387 123.019 78.012 124.587 78.012C126.155 78.012 127.546 78.3387 128.759 78.992C129.991 79.6267 130.943 80.5413 131.615 81.736C132.306 82.9307 132.651 84.34 132.651 85.964ZM126.351 84.48C126.351 83.9573 126.183 83.5653 125.847 83.304C125.511 83.024 125.091 82.884 124.587 82.884C123.486 82.884 122.842 83.416 122.655 84.48H126.351ZM146.403 94.196C144.909 94.196 143.584 93.9533 142.427 93.468C141.288 92.9827 140.383 92.3107 139.711 91.452C139.039 90.5933 138.656 89.6227 138.563 88.54H144.527C144.601 89.0067 144.797 89.352 145.115 89.576C145.451 89.8 145.871 89.912 146.375 89.912C146.692 89.912 146.944 89.8467 147.131 89.716C147.317 89.5667 147.411 89.3893 147.411 89.184C147.411 88.8293 147.215 88.5773 146.823 88.428C146.431 88.2787 145.768 88.1107 144.835 87.924C143.696 87.7 142.753 87.4573 142.007 87.196C141.279 86.9347 140.635 86.4867 140.075 85.852C139.533 85.2173 139.263 84.34 139.263 83.22C139.263 82.2493 139.515 81.372 140.019 80.588C140.541 79.7853 141.307 79.16 142.315 78.712C143.323 78.2453 144.545 78.012 145.983 78.012C148.111 78.012 149.772 78.5347 150.967 79.58C152.18 80.6253 152.908 81.988 153.151 83.668H147.635C147.541 83.2387 147.345 82.912 147.047 82.688C146.748 82.4453 146.347 82.324 145.843 82.324C145.525 82.324 145.283 82.3893 145.115 82.52C144.947 82.632 144.863 82.8093 144.863 83.052C144.863 83.3693 145.059 83.612 145.451 83.78C145.843 83.9293 146.468 84.088 147.327 84.256C148.465 84.48 149.427 84.732 150.211 85.012C150.995 85.292 151.676 85.7773 152.255 86.468C152.833 87.14 153.123 88.0733 153.123 89.268C153.123 90.2013 152.852 91.0413 152.311 91.788C151.769 92.5347 150.985 93.1227 149.959 93.552C148.951 93.9813 147.765 94.196 146.403 94.196ZM176.673 78.096C178.689 78.096 180.248 78.7027 181.349 79.916C182.469 81.1293 183.029 82.772 183.029 84.844V94H176.841V85.628C176.841 84.956 176.636 84.4333 176.225 84.06C175.833 83.668 175.301 83.472 174.629 83.472C173.939 83.472 173.397 83.668 173.005 84.06C172.613 84.4333 172.417 84.956 172.417 85.628V94H166.229V85.628C166.229 84.956 166.024 84.4333 165.613 84.06C165.221 83.668 164.689 83.472 164.017 83.472C163.327 83.472 162.785 83.668 162.393 84.06C162.001 84.4333 161.805 84.956 161.805 85.628V94H155.589V78.208H161.805V80.336C162.253 79.664 162.86 79.1227 163.625 78.712C164.409 78.3013 165.324 78.096 166.369 78.096C167.508 78.096 168.516 78.348 169.393 78.852C170.271 79.3373 170.971 80.028 171.493 80.924C172.072 80.1027 172.809 79.4307 173.705 78.908C174.601 78.3667 175.591 78.096 176.673 78.096ZM184.882 86.104C184.882 84.4427 185.162 83.0053 185.722 81.792C186.301 80.56 187.085 79.6267 188.074 78.992C189.064 78.3387 190.174 78.012 191.406 78.012C192.433 78.012 193.32 78.2267 194.066 78.656C194.813 79.0667 195.382 79.636 195.774 80.364V78.208H201.962V94H195.774V91.844C195.382 92.572 194.813 93.1507 194.066 93.58C193.32 93.9907 192.433 94.196 191.406 94.196C190.174 94.196 189.064 93.8787 188.074 93.244C187.085 92.5907 186.301 91.6573 185.722 90.444C185.162 89.212 184.882 87.7653 184.882 86.104ZM195.774 86.104C195.774 85.264 195.56 84.6107 195.13 84.144C194.701 83.6773 194.15 83.444 193.478 83.444C192.806 83.444 192.256 83.6773 191.826 84.144C191.397 84.6107 191.182 85.264 191.182 86.104C191.182 86.944 191.397 87.5973 191.826 88.064C192.256 88.5307 192.806 88.764 193.478 88.764C194.15 88.764 194.701 88.5307 195.13 88.064C195.56 87.5973 195.774 86.944 195.774 86.104ZM210.97 81.12C211.604 80.2053 212.379 79.4773 213.294 78.936C214.208 78.376 215.16 78.096 216.15 78.096V84.732H214.386C213.21 84.732 212.342 84.9373 211.782 85.348C211.24 85.7587 210.97 86.4867 210.97 87.532V94H204.754V78.208H210.97V81.12ZM227.652 88.708V94H225.3C220.969 94 218.804 91.844 218.804 87.532V83.388H216.844V78.208H218.804V74.4H225.02V78.208H227.596V83.388H225.02V87.644C225.02 88.0173 225.104 88.288 225.272 88.456C225.458 88.624 225.757 88.708 226.168 88.708H227.652ZM233.937 86.104C233.937 84.4427 234.217 83.0053 234.777 81.792C235.356 80.56 236.14 79.6267 237.129 78.992C238.118 78.3387 239.229 78.012 240.461 78.012C241.488 78.012 242.374 78.2267 243.121 78.656C243.868 79.0667 244.437 79.636 244.829 80.364V78.208H251.017V94H244.829V91.844C244.437 92.572 243.868 93.1507 243.121 93.58C242.374 93.9907 241.488 94.196 240.461 94.196C239.229 94.196 238.118 93.8787 237.129 93.244C236.14 92.5907 235.356 91.6573 234.777 90.444C234.217 89.212 233.937 87.7653 233.937 86.104ZM244.829 86.104C244.829 85.264 244.614 84.6107 244.185 84.144C243.756 83.6773 243.205 83.444 242.533 83.444C241.861 83.444 241.31 83.6773 240.881 84.144C240.452 84.6107 240.237 85.264 240.237 86.104C240.237 86.944 240.452 87.5973 240.881 88.064C241.31 88.5307 241.861 88.764 242.533 88.764C243.205 88.764 243.756 88.5307 244.185 88.064C244.614 87.5973 244.829 86.944 244.829 86.104ZM264.868 78.096C266.679 78.096 268.088 78.7027 269.096 79.916C270.123 81.1293 270.636 82.772 270.636 84.844V94H264.448V85.628C264.448 84.8813 264.243 84.2933 263.832 83.864C263.44 83.416 262.908 83.192 262.236 83.192C261.546 83.192 261.004 83.416 260.612 83.864C260.22 84.2933 260.024 84.8813 260.024 85.628V94H253.808V78.208H260.024V80.616C260.51 79.8693 261.154 79.2627 261.956 78.796C262.778 78.3293 263.748 78.096 264.868 78.096ZM272.492 86.104C272.492 84.4427 272.772 83.0053 273.332 81.792C273.91 80.56 274.694 79.6267 275.684 78.992C276.673 78.3387 277.784 78.012 279.016 78.012C280.042 78.012 280.92 78.2267 281.648 78.656C282.394 79.0667 282.964 79.636 283.356 80.364V73.28H289.572V94H283.356V91.844C282.964 92.572 282.394 93.1507 281.648 93.58C280.92 93.9907 280.042 94.196 279.016 94.196C277.784 94.196 276.673 93.8787 275.684 93.244C274.694 92.5907 273.91 91.6573 273.332 90.444C272.772 89.212 272.492 87.7653 272.492 86.104ZM283.384 86.104C283.384 85.264 283.169 84.6107 282.74 84.144C282.31 83.6773 281.76 83.444 281.088 83.444C280.416 83.444 279.865 83.6773 279.436 84.144C279.006 84.6107 278.792 85.264 278.792 86.104C278.792 86.944 279.006 87.5973 279.436 88.064C279.865 88.5307 280.416 88.764 281.088 88.764C281.76 88.764 282.31 88.5307 282.74 88.064C283.169 87.5973 283.384 86.944 283.384 86.104ZM296.281 86.104C296.281 84.4613 296.617 83.0333 297.289 81.82C297.979 80.588 298.931 79.6453 300.145 78.992C301.377 78.3387 302.777 78.012 304.345 78.012C306.398 78.012 308.125 78.5907 309.525 79.748C310.943 80.9053 311.839 82.5107 312.213 84.564H305.633C305.39 83.7427 304.914 83.332 304.205 83.332C303.701 83.332 303.299 83.5653 303.001 84.032C302.721 84.4987 302.581 85.1893 302.581 86.104C302.581 87.0187 302.721 87.7093 303.001 88.176C303.299 88.6427 303.701 88.876 304.205 88.876C304.914 88.876 305.39 88.4653 305.633 87.644H312.213C311.839 89.6973 310.943 91.3027 309.525 92.46C308.125 93.6173 306.398 94.196 304.345 94.196C302.777 94.196 301.377 93.8693 300.145 93.216C298.931 92.5627 297.979 91.6293 297.289 90.416C296.617 89.184 296.281 87.7467 296.281 86.104ZM320.399 73.28V94H314.183V73.28H320.399ZM330.711 94.196C329.124 94.196 327.696 93.8693 326.427 93.216C325.157 92.5627 324.159 91.6293 323.431 90.416C322.721 89.184 322.367 87.7467 322.367 86.104C322.367 84.4613 322.721 83.0333 323.431 81.82C324.159 80.588 325.157 79.6453 326.427 78.992C327.696 78.3387 329.124 78.012 330.711 78.012C332.297 78.012 333.725 78.3387 334.995 78.992C336.264 79.6453 337.253 80.588 337.963 81.82C338.691 83.0333 339.055 84.4613 339.055 86.104C339.055 87.7467 338.691 89.184 337.963 90.416C337.253 91.6293 336.264 92.5627 334.995 93.216C333.725 93.8693 332.297 94.196 330.711 94.196ZM330.711 88.82C331.289 88.82 331.775 88.596 332.167 88.148C332.559 87.6813 332.755 87 332.755 86.104C332.755 85.208 332.559 84.536 332.167 84.088C331.775 83.6213 331.289 83.388 330.711 83.388C330.132 83.388 329.647 83.6213 329.255 84.088C328.863 84.536 328.667 85.208 328.667 86.104C328.667 87 328.853 87.6813 329.227 88.148C329.619 88.596 330.113 88.82 330.711 88.82ZM348.035 94.196C346.542 94.196 345.217 93.9533 344.059 93.468C342.921 92.9827 342.015 92.3107 341.343 91.452C340.671 90.5933 340.289 89.6227 340.195 88.54H346.159C346.234 89.0067 346.43 89.352 346.747 89.576C347.083 89.8 347.503 89.912 348.007 89.912C348.325 89.912 348.577 89.8467 348.763 89.716C348.95 89.5667 349.043 89.3893 349.043 89.184C349.043 88.8293 348.847 88.5773 348.455 88.428C348.063 88.2787 347.401 88.1107 346.467 87.924C345.329 87.7 344.386 87.4573 343.639 87.196C342.911 86.9347 342.267 86.4867 341.707 85.852C341.166 85.2173 340.895 84.34 340.895 83.22C340.895 82.2493 341.147 81.372 341.651 80.588C342.174 79.7853 342.939 79.16 343.947 78.712C344.955 78.2453 346.178 78.012 347.615 78.012C349.743 78.012 351.405 78.5347 352.599 79.58C353.813 80.6253 354.541 81.988 354.783 83.668H349.267C349.174 83.2387 348.978 82.912 348.679 82.688C348.381 82.4453 347.979 82.324 347.475 82.324C347.158 82.324 346.915 82.3893 346.747 82.52C346.579 82.632 346.495 82.8093 346.495 83.052C346.495 83.3693 346.691 83.612 347.083 83.78C347.475 83.9293 348.101 84.088 348.959 84.256C350.098 84.48 351.059 84.732 351.843 85.012C352.627 85.292 353.309 85.7773 353.887 86.468C354.466 87.14 354.755 88.0733 354.755 89.268C354.755 90.2013 354.485 91.0413 353.943 91.788C353.402 92.5347 352.618 93.1227 351.591 93.552C350.583 93.9813 349.398 94.196 348.035 94.196ZM372.51 85.964C372.51 86.3933 372.482 86.804 372.426 87.196H362.43C362.524 88.5587 363.093 89.24 364.138 89.24C364.81 89.24 365.296 88.932 365.594 88.316H372.174C371.95 89.436 371.474 90.444 370.746 91.34C370.037 92.2173 369.132 92.9173 368.03 93.44C366.948 93.944 365.753 94.196 364.446 94.196C362.878 94.196 361.478 93.8693 360.246 93.216C359.033 92.5627 358.081 91.6293 357.39 90.416C356.718 89.184 356.382 87.7467 356.382 86.104C356.382 84.4613 356.718 83.0333 357.39 81.82C358.081 80.588 359.033 79.6453 360.246 78.992C361.478 78.3387 362.878 78.012 364.446 78.012C366.014 78.012 367.405 78.3387 368.618 78.992C369.85 79.6267 370.802 80.5413 371.474 81.736C372.165 82.9307 372.51 84.34 372.51 85.964ZM366.21 84.48C366.21 83.9573 366.042 83.5653 365.706 83.304C365.37 83.024 364.95 82.884 364.446 82.884C363.345 82.884 362.701 83.416 362.514 84.48H366.21ZM397.07 78.208L386.962 101.56H380.158L384.134 93.216L377.554 78.208H384.47L387.438 86.216L390.21 78.208H397.07ZM405.687 94.196C404.101 94.196 402.673 93.8693 401.403 93.216C400.134 92.5627 399.135 91.6293 398.407 90.416C397.698 89.184 397.343 87.7467 397.343 86.104C397.343 84.4613 397.698 83.0333 398.407 81.82C399.135 80.588 400.134 79.6453 401.403 78.992C402.673 78.3387 404.101 78.012 405.687 78.012C407.274 78.012 408.702 78.3387 409.971 78.992C411.241 79.6453 412.23 80.588 412.939 81.82C413.667 83.0333 414.031 84.4613 414.031 86.104C414.031 87.7467 413.667 89.184 412.939 90.416C412.23 91.6293 411.241 92.5627 409.971 93.216C408.702 93.8693 407.274 94.196 405.687 94.196ZM405.687 88.82C406.266 88.82 406.751 88.596 407.143 88.148C407.535 87.6813 407.731 87 407.731 86.104C407.731 85.208 407.535 84.536 407.143 84.088C406.751 83.6213 406.266 83.388 405.687 83.388C405.109 83.388 404.623 83.6213 404.231 84.088C403.839 84.536 403.643 85.208 403.643 86.104C403.643 87 403.83 87.6813 404.203 88.148C404.595 88.596 405.09 88.82 405.687 88.82ZM432.7 78.208V94H426.484V91.592C425.999 92.3387 425.345 92.9453 424.524 93.412C423.721 93.8787 422.76 94.112 421.64 94.112C419.829 94.112 418.411 93.5053 417.384 92.292C416.376 91.0787 415.872 89.436 415.872 87.364V78.208H422.06V86.58C422.06 87.3267 422.256 87.924 422.648 88.372C423.059 88.8013 423.6 89.016 424.272 89.016C424.963 89.016 425.504 88.8013 425.896 88.372C426.288 87.924 426.484 87.3267 426.484 86.58V78.208H432.7ZM441.723 81.12C442.358 80.2053 443.133 79.4773 444.047 78.936C444.962 78.376 445.914 78.096 446.903 78.096V84.732H445.139C443.963 84.732 443.095 84.9373 442.535 85.348C441.994 85.7587 441.723 86.4867 441.723 87.532V94H435.507V78.208H441.723V81.12ZM77.9832 122.364C78.3752 121.636 78.9352 121.067 79.6632 120.656C80.4099 120.227 81.2965 120.012 82.3232 120.012C83.5552 120.012 84.6659 120.339 85.6552 120.992C86.6445 121.627 87.4192 122.56 87.9792 123.792C88.5579 125.005 88.8472 126.443 88.8472 128.104C88.8472 129.765 88.5579 131.212 87.9792 132.444C87.4192 133.657 86.6445 134.591 85.6552 135.244C84.6659 135.879 83.5552 136.196 82.3232 136.196C81.2965 136.196 80.4099 135.991 79.6632 135.58C78.9352 135.151 78.3752 134.572 77.9832 133.844V136H71.7672V115.28H77.9832V122.364ZM82.5472 128.104C82.5472 127.264 82.3325 126.611 81.9032 126.144C81.4739 125.677 80.9232 125.444 80.2512 125.444C79.5792 125.444 79.0285 125.677 78.5992 126.144C78.1699 126.611 77.9552 127.264 77.9552 128.104C77.9552 128.944 78.1699 129.597 78.5992 130.064C79.0285 130.531 79.5792 130.764 80.2512 130.764C80.9232 130.764 81.4739 130.531 81.9032 130.064C82.3325 129.597 82.5472 128.944 82.5472 128.104ZM89.9584 128.104C89.9584 126.443 90.2384 125.005 90.7984 123.792C91.3771 122.56 92.1611 121.627 93.1504 120.992C94.1398 120.339 95.2504 120.012 96.4824 120.012C97.5091 120.012 98.3958 120.227 99.1424 120.656C99.8891 121.067 100.458 121.636 100.85 122.364V120.208H107.038V136H100.85V133.844C100.458 134.572 99.8891 135.151 99.1424 135.58C98.3958 135.991 97.5091 136.196 96.4824 136.196C95.2504 136.196 94.1398 135.879 93.1504 135.244C92.1611 134.591 91.3771 133.657 90.7984 132.444C90.2384 131.212 89.9584 129.765 89.9584 128.104ZM100.85 128.104C100.85 127.264 100.636 126.611 100.206 126.144C99.7771 125.677 99.2264 125.444 98.5544 125.444C97.8824 125.444 97.3318 125.677 96.9024 126.144C96.4731 126.611 96.2584 127.264 96.2584 128.104C96.2584 128.944 96.4731 129.597 96.9024 130.064C97.3318 130.531 97.8824 130.764 98.5544 130.764C99.2264 130.764 99.7771 130.531 100.206 130.064C100.636 129.597 100.85 128.944 100.85 128.104ZM116.046 123.12C116.68 122.205 117.455 121.477 118.37 120.936C119.284 120.376 120.236 120.096 121.226 120.096V126.732H119.462C118.286 126.732 117.418 126.937 116.858 127.348C116.316 127.759 116.046 128.487 116.046 129.532V136H109.83V120.208H116.046V123.12ZM128.584 120.012C129.611 120.012 130.497 120.227 131.244 120.656C131.991 121.067 132.56 121.636 132.952 122.364V120.208H139.14V135.72C139.14 137.195 138.869 138.539 138.328 139.752C137.787 140.965 136.909 141.936 135.696 142.664C134.501 143.392 132.961 143.756 131.076 143.756C128.537 143.756 126.521 143.159 125.028 141.964C123.553 140.788 122.713 139.183 122.508 137.148H128.612C128.78 137.969 129.452 138.38 130.628 138.38C131.356 138.38 131.925 138.193 132.336 137.82C132.747 137.447 132.952 136.747 132.952 135.72V133.844C132.56 134.572 131.991 135.151 131.244 135.58C130.497 135.991 129.611 136.196 128.584 136.196C127.352 136.196 126.241 135.879 125.252 135.244C124.263 134.591 123.479 133.657 122.9 132.444C122.34 131.212 122.06 129.765 122.06 128.104C122.06 126.443 122.34 125.005 122.9 123.792C123.479 122.56 124.263 121.627 125.252 120.992C126.241 120.339 127.352 120.012 128.584 120.012ZM132.952 128.104C132.952 127.264 132.737 126.611 132.308 126.144C131.879 125.677 131.328 125.444 130.656 125.444C129.984 125.444 129.433 125.677 129.004 126.144C128.575 126.611 128.36 127.264 128.36 128.104C128.36 128.944 128.575 129.597 129.004 130.064C129.433 130.531 129.984 130.764 130.656 130.764C131.328 130.764 131.879 130.531 132.308 130.064C132.737 129.597 132.952 128.944 132.952 128.104ZM141.091 128.104C141.091 126.443 141.371 125.005 141.931 123.792C142.51 122.56 143.294 121.627 144.283 120.992C145.273 120.339 146.383 120.012 147.615 120.012C148.642 120.012 149.529 120.227 150.275 120.656C151.022 121.067 151.591 121.636 151.983 122.364V120.208H158.171V136H151.983V133.844C151.591 134.572 151.022 135.151 150.275 135.58C149.529 135.991 148.642 136.196 147.615 136.196C146.383 136.196 145.273 135.879 144.283 135.244C143.294 134.591 142.51 133.657 141.931 132.444C141.371 131.212 141.091 129.765 141.091 128.104ZM151.983 128.104C151.983 127.264 151.769 126.611 151.339 126.144C150.91 125.677 150.359 125.444 149.687 125.444C149.015 125.444 148.465 125.677 148.035 126.144C147.606 126.611 147.391 127.264 147.391 128.104C147.391 128.944 147.606 129.597 148.035 130.064C148.465 130.531 149.015 130.764 149.687 130.764C150.359 130.764 150.91 130.531 151.339 130.064C151.769 129.597 151.983 128.944 151.983 128.104ZM164.099 118.948C163.016 118.948 162.148 118.659 161.495 118.08C160.841 117.501 160.515 116.773 160.515 115.896C160.515 115 160.841 114.263 161.495 113.684C162.148 113.087 163.016 112.788 164.099 112.788C165.163 112.788 166.021 113.087 166.675 113.684C167.328 114.263 167.655 115 167.655 115.896C167.655 116.773 167.328 117.501 166.675 118.08C166.021 118.659 165.163 118.948 164.099 118.948ZM167.179 120.208V136H160.963V120.208H167.179ZM181.046 120.096C182.857 120.096 184.266 120.703 185.274 121.916C186.301 123.129 186.814 124.772 186.814 126.844V136H180.626V127.628C180.626 126.881 180.421 126.293 180.01 125.864C179.618 125.416 179.086 125.192 178.414 125.192C177.723 125.192 177.182 125.416 176.79 125.864C176.398 126.293 176.202 126.881 176.202 127.628V136H169.986V120.208H176.202V122.616C176.687 121.869 177.331 121.263 178.134 120.796C178.955 120.329 179.926 120.096 181.046 120.096ZM200.483 122.364C200.875 121.636 201.435 121.067 202.163 120.656C202.91 120.227 203.797 120.012 204.823 120.012C206.055 120.012 207.166 120.339 208.155 120.992C209.145 121.627 209.919 122.56 210.479 123.792C211.058 125.005 211.347 126.443 211.347 128.104C211.347 129.765 211.058 131.212 210.479 132.444C209.919 133.657 209.145 134.591 208.155 135.244C207.166 135.879 206.055 136.196 204.823 136.196C203.797 136.196 202.91 135.991 202.163 135.58C201.435 135.151 200.875 134.572 200.483 133.844V136H194.267V115.28H200.483V122.364ZM205.047 128.104C205.047 127.264 204.833 126.611 204.403 126.144C203.974 125.677 203.423 125.444 202.751 125.444C202.079 125.444 201.529 125.677 201.099 126.144C200.67 126.611 200.455 127.264 200.455 128.104C200.455 128.944 200.67 129.597 201.099 130.064C201.529 130.531 202.079 130.764 202.751 130.764C203.423 130.764 203.974 130.531 204.403 130.064C204.833 129.597 205.047 128.944 205.047 128.104ZM228.586 127.964C228.586 128.393 228.558 128.804 228.502 129.196H218.506C218.6 130.559 219.169 131.24 220.214 131.24C220.886 131.24 221.372 130.932 221.67 130.316H228.25C228.026 131.436 227.55 132.444 226.822 133.34C226.113 134.217 225.208 134.917 224.106 135.44C223.024 135.944 221.829 136.196 220.522 136.196C218.954 136.196 217.554 135.869 216.322 135.216C215.109 134.563 214.157 133.629 213.466 132.416C212.794 131.184 212.458 129.747 212.458 128.104C212.458 126.461 212.794 125.033 213.466 123.82C214.157 122.588 215.109 121.645 216.322 120.992C217.554 120.339 218.954 120.012 220.522 120.012C222.09 120.012 223.481 120.339 224.694 120.992C225.926 121.627 226.878 122.541 227.55 123.736C228.241 124.931 228.586 126.34 228.586 127.964ZM222.286 126.48C222.286 125.957 222.118 125.565 221.782 125.304C221.446 125.024 221.026 124.884 220.522 124.884C219.421 124.884 218.777 125.416 218.59 126.48H222.286ZM239.652 119.088C239.316 119.051 239.083 119.032 238.952 119.032C238.486 119.032 238.131 119.125 237.888 119.312C237.646 119.48 237.478 119.779 237.384 120.208H239.652V125.388H237.328V136H231.112V125.388H229.432V120.208H231.112C231.15 118.155 231.794 116.568 233.044 115.448C234.314 114.309 236.087 113.74 238.364 113.74C238.626 113.74 239.055 113.759 239.652 113.796V119.088ZM248.83 136.196C247.243 136.196 245.815 135.869 244.546 135.216C243.276 134.563 242.278 133.629 241.55 132.416C240.84 131.184 240.486 129.747 240.486 128.104C240.486 126.461 240.84 125.033 241.55 123.82C242.278 122.588 243.276 121.645 244.546 120.992C245.815 120.339 247.243 120.012 248.83 120.012C250.416 120.012 251.844 120.339 253.114 120.992C254.383 121.645 255.372 122.588 256.082 123.82C256.81 125.033 257.174 126.461 257.174 128.104C257.174 129.747 256.81 131.184 256.082 132.416C255.372 133.629 254.383 134.563 253.114 135.216C251.844 135.869 250.416 136.196 248.83 136.196ZM248.83 130.82C249.408 130.82 249.894 130.596 250.286 130.148C250.678 129.681 250.874 129 250.874 128.104C250.874 127.208 250.678 126.536 250.286 126.088C249.894 125.621 249.408 125.388 248.83 125.388C248.251 125.388 247.766 125.621 247.374 126.088C246.982 126.536 246.786 127.208 246.786 128.104C246.786 129 246.972 129.681 247.346 130.148C247.738 130.596 248.232 130.82 248.83 130.82ZM265.343 123.12C265.977 122.205 266.752 121.477 267.667 120.936C268.581 120.376 269.533 120.096 270.523 120.096V126.732H268.759C267.583 126.732 266.715 126.937 266.155 127.348C265.613 127.759 265.343 128.487 265.343 129.532V136H259.127V120.208H265.343V123.12ZM287.485 127.964C287.485 128.393 287.457 128.804 287.401 129.196H277.405C277.498 130.559 278.068 131.24 279.113 131.24C279.785 131.24 280.27 130.932 280.569 130.316H287.149C286.925 131.436 286.449 132.444 285.721 133.34C285.012 134.217 284.106 134.917 283.005 135.44C281.922 135.944 280.728 136.196 279.421 136.196C277.853 136.196 276.453 135.869 275.221 135.216C274.008 134.563 273.056 133.629 272.365 132.416C271.693 131.184 271.357 129.747 271.357 128.104C271.357 126.461 271.693 125.033 272.365 123.82C273.056 122.588 274.008 121.645 275.221 120.992C276.453 120.339 277.853 120.012 279.421 120.012C280.989 120.012 282.38 120.339 283.593 120.992C284.825 121.627 285.777 122.541 286.449 123.736C287.14 124.931 287.485 126.34 287.485 127.964ZM281.185 126.48C281.185 125.957 281.017 125.565 280.681 125.304C280.345 125.024 279.925 124.884 279.421 124.884C278.32 124.884 277.676 125.416 277.489 126.48H281.185ZM301.237 136.196C299.743 136.196 298.418 135.953 297.261 135.468C296.122 134.983 295.217 134.311 294.545 133.452C293.873 132.593 293.49 131.623 293.397 130.54H299.361C299.435 131.007 299.631 131.352 299.949 131.576C300.285 131.8 300.705 131.912 301.209 131.912C301.526 131.912 301.778 131.847 301.965 131.716C302.151 131.567 302.245 131.389 302.245 131.184C302.245 130.829 302.049 130.577 301.657 130.428C301.265 130.279 300.602 130.111 299.669 129.924C298.53 129.7 297.587 129.457 296.841 129.196C296.113 128.935 295.469 128.487 294.909 127.852C294.367 127.217 294.097 126.34 294.097 125.22C294.097 124.249 294.349 123.372 294.853 122.588C295.375 121.785 296.141 121.16 297.149 120.712C298.157 120.245 299.379 120.012 300.817 120.012C302.945 120.012 304.606 120.535 305.801 121.58C307.014 122.625 307.742 123.988 307.985 125.668H302.469C302.375 125.239 302.179 124.912 301.881 124.688C301.582 124.445 301.181 124.324 300.677 124.324C300.359 124.324 300.117 124.389 299.949 124.52C299.781 124.632 299.697 124.809 299.697 125.052C299.697 125.369 299.893 125.612 300.285 125.78C300.677 125.929 301.302 126.088 302.161 126.256C303.299 126.48 304.261 126.732 305.045 127.012C305.829 127.292 306.51 127.777 307.089 128.468C307.667 129.14 307.957 130.073 307.957 131.268C307.957 132.201 307.686 133.041 307.145 133.788C306.603 134.535 305.819 135.123 304.793 135.552C303.785 135.981 302.599 136.196 301.237 136.196ZM320.251 130.708V136H317.899C313.569 136 311.403 133.844 311.403 129.532V125.388H309.443V120.208H311.403V116.4H317.619V120.208H320.195V125.388H317.619V129.644C317.619 130.017 317.703 130.288 317.871 130.456C318.058 130.624 318.357 130.708 318.767 130.708H320.251ZM337.907 127.964C337.907 128.393 337.879 128.804 337.823 129.196H327.827C327.92 130.559 328.489 131.24 329.535 131.24C330.207 131.24 330.692 130.932 330.991 130.316H337.571C337.347 131.436 336.871 132.444 336.143 133.34C335.433 134.217 334.528 134.917 333.427 135.44C332.344 135.944 331.149 136.196 329.843 136.196C328.275 136.196 326.875 135.869 325.643 135.216C324.429 134.563 323.477 133.629 322.787 132.416C322.115 131.184 321.779 129.747 321.779 128.104C321.779 126.461 322.115 125.033 322.787 123.82C323.477 122.588 324.429 121.645 325.643 120.992C326.875 120.339 328.275 120.012 329.843 120.012C331.411 120.012 332.801 120.339 334.015 120.992C335.247 121.627 336.199 122.541 336.871 123.736C337.561 124.931 337.907 126.34 337.907 127.964ZM331.607 126.48C331.607 125.957 331.439 125.565 331.103 125.304C330.767 125.024 330.347 124.884 329.843 124.884C328.741 124.884 328.097 125.416 327.911 126.48H331.607ZM346.089 122.364C346.481 121.636 347.041 121.067 347.769 120.656C348.515 120.227 349.402 120.012 350.429 120.012C351.661 120.012 352.771 120.339 353.761 120.992C354.75 121.627 355.525 122.56 356.085 123.792C356.663 125.005 356.953 126.443 356.953 128.104C356.953 129.765 356.663 131.212 356.085 132.444C355.525 133.657 354.75 134.591 353.761 135.244C352.771 135.879 351.661 136.196 350.429 136.196C349.402 136.196 348.515 135.991 347.769 135.58C347.041 135.151 346.481 134.572 346.089 133.844V143.56H339.873V120.208H346.089V122.364ZM350.653 128.104C350.653 127.264 350.438 126.611 350.009 126.144C349.579 125.677 349.029 125.444 348.357 125.444C347.685 125.444 347.134 125.677 346.705 126.144C346.275 126.611 346.061 127.264 346.061 128.104C346.061 128.944 346.275 129.597 346.705 130.064C347.134 130.531 347.685 130.764 348.357 130.764C349.029 130.764 349.579 130.531 350.009 130.064C350.438 129.597 350.653 128.944 350.653 128.104ZM365.12 122.364C365.512 121.636 366.072 121.067 366.8 120.656C367.547 120.227 368.433 120.012 369.46 120.012C370.692 120.012 371.803 120.339 372.792 120.992C373.781 121.627 374.556 122.56 375.116 123.792C375.695 125.005 375.984 126.443 375.984 128.104C375.984 129.765 375.695 131.212 375.116 132.444C374.556 133.657 373.781 134.591 372.792 135.244C371.803 135.879 370.692 136.196 369.46 136.196C368.433 136.196 367.547 135.991 366.8 135.58C366.072 135.151 365.512 134.572 365.12 133.844V143.56H358.904V120.208H365.12V122.364ZM369.684 128.104C369.684 127.264 369.469 126.611 369.04 126.144C368.611 125.677 368.06 125.444 367.388 125.444C366.716 125.444 366.165 125.677 365.736 126.144C365.307 126.611 365.092 127.264 365.092 128.104C365.092 128.944 365.307 129.597 365.736 130.064C366.165 130.531 366.716 130.764 367.388 130.764C368.06 130.764 368.611 130.531 369.04 130.064C369.469 129.597 369.684 128.944 369.684 128.104ZM381.071 118.948C379.988 118.948 379.12 118.659 378.467 118.08C377.814 117.501 377.487 116.773 377.487 115.896C377.487 115 377.814 114.263 378.467 113.684C379.12 113.087 379.988 112.788 381.071 112.788C382.135 112.788 382.994 113.087 383.647 113.684C384.3 114.263 384.627 115 384.627 115.896C384.627 116.773 384.3 117.501 383.647 118.08C382.994 118.659 382.135 118.948 381.071 118.948ZM384.151 120.208V136H377.935V120.208H384.151ZM398.019 120.096C399.829 120.096 401.239 120.703 402.247 121.916C403.273 123.129 403.787 124.772 403.787 126.844V136H397.599V127.628C397.599 126.881 397.393 126.293 396.983 125.864C396.591 125.416 396.059 125.192 395.387 125.192C394.696 125.192 394.155 125.416 393.763 125.864C393.371 126.293 393.175 126.881 393.175 127.628V136H386.959V120.208H393.175V122.616C393.66 121.869 394.304 121.263 395.107 120.796C395.928 120.329 396.899 120.096 398.019 120.096ZM412.166 120.012C413.193 120.012 414.079 120.227 414.826 120.656C415.573 121.067 416.142 121.636 416.534 122.364V120.208H422.722V135.72C422.722 137.195 422.451 138.539 421.91 139.752C421.369 140.965 420.491 141.936 419.278 142.664C418.083 143.392 416.543 143.756 414.658 143.756C412.119 143.756 410.103 143.159 408.61 141.964C407.135 140.788 406.295 139.183 406.09 137.148H412.194C412.362 137.969 413.034 138.38 414.21 138.38C414.938 138.38 415.507 138.193 415.918 137.82C416.329 137.447 416.534 136.747 416.534 135.72V133.844C416.142 134.572 415.573 135.151 414.826 135.58C414.079 135.991 413.193 136.196 412.166 136.196C410.934 136.196 409.823 135.879 408.834 135.244C407.845 134.591 407.061 133.657 406.482 132.444C405.922 131.212 405.642 129.765 405.642 128.104C405.642 126.443 405.922 125.005 406.482 123.792C407.061 122.56 407.845 121.627 408.834 120.992C409.823 120.339 410.934 120.012 412.166 120.012ZM416.534 128.104C416.534 127.264 416.319 126.611 415.89 126.144C415.461 125.677 414.91 125.444 414.238 125.444C413.566 125.444 413.015 125.677 412.586 126.144C412.157 126.611 411.942 127.264 411.942 128.104C411.942 128.944 412.157 129.597 412.586 130.064C413.015 130.531 413.566 130.764 414.238 130.764C414.91 130.764 415.461 130.531 415.89 130.064C416.319 129.597 416.534 128.944 416.534 128.104ZM437.775 136.196C436.188 136.196 434.76 135.869 433.491 135.216C432.222 134.563 431.223 133.629 430.495 132.416C429.786 131.184 429.431 129.747 429.431 128.104C429.431 126.461 429.786 125.033 430.495 123.82C431.223 122.588 432.222 121.645 433.491 120.992C434.76 120.339 436.188 120.012 437.775 120.012C439.362 120.012 440.79 120.339 442.059 120.992C443.328 121.645 444.318 122.588 445.027 123.82C445.755 125.033 446.119 126.461 446.119 128.104C446.119 129.747 445.755 131.184 445.027 132.416C444.318 133.629 443.328 134.563 442.059 135.216C440.79 135.869 439.362 136.196 437.775 136.196ZM437.775 130.82C438.354 130.82 438.839 130.596 439.231 130.148C439.623 129.681 439.819 129 439.819 128.104C439.819 127.208 439.623 126.536 439.231 126.088C438.839 125.621 438.354 125.388 437.775 125.388C437.196 125.388 436.711 125.621 436.319 126.088C435.927 126.536 435.731 127.208 435.731 128.104C435.731 129 435.918 129.681 436.291 130.148C436.683 130.596 437.178 130.82 437.775 130.82ZM464.788 120.208V136H458.572V133.592C458.087 134.339 457.433 134.945 456.612 135.412C455.809 135.879 454.848 136.112 453.728 136.112C451.917 136.112 450.499 135.505 449.472 134.292C448.464 133.079 447.96 131.436 447.96 129.364V120.208H454.148V128.58C454.148 129.327 454.344 129.924 454.736 130.372C455.147 130.801 455.688 131.016 456.36 131.016C457.051 131.016 457.592 130.801 457.984 130.372C458.376 129.924 458.572 129.327 458.572 128.58V120.208H464.788ZM477.423 130.708V136H475.071C470.741 136 468.575 133.844 468.575 129.532V125.388H466.615V120.208H468.575V116.4H474.791V120.208H477.367V125.388H474.791V129.644C474.791 130.017 474.875 130.288 475.043 130.456C475.23 130.624 475.529 130.708 475.939 130.708H477.423ZM197.406 161.088C197.07 161.051 196.837 161.032 196.706 161.032C196.24 161.032 195.885 161.125 195.642 161.312C195.4 161.48 195.232 161.779 195.138 162.208H197.406V167.388H195.082V178H188.866V167.388H187.186V162.208H188.866C188.904 160.155 189.548 158.568 190.798 157.448C192.068 156.309 193.841 155.74 196.118 155.74C196.38 155.74 196.809 155.759 197.406 155.796V161.088ZM205.296 165.12C205.93 164.205 206.705 163.477 207.62 162.936C208.534 162.376 209.486 162.096 210.476 162.096V168.732H208.712C207.536 168.732 206.668 168.937 206.108 169.348C205.566 169.759 205.296 170.487 205.296 171.532V178H199.08V162.208H205.296V165.12ZM219.654 178.196C218.067 178.196 216.639 177.869 215.37 177.216C214.101 176.563 213.102 175.629 212.374 174.416C211.665 173.184 211.31 171.747 211.31 170.104C211.31 168.461 211.665 167.033 212.374 165.82C213.102 164.588 214.101 163.645 215.37 162.992C216.639 162.339 218.067 162.012 219.654 162.012C221.241 162.012 222.669 162.339 223.938 162.992C225.207 163.645 226.197 164.588 226.906 165.82C227.634 167.033 227.998 168.461 227.998 170.104C227.998 171.747 227.634 173.184 226.906 174.416C226.197 175.629 225.207 176.563 223.938 177.216C222.669 177.869 221.241 178.196 219.654 178.196ZM219.654 172.82C220.233 172.82 220.718 172.596 221.11 172.148C221.502 171.681 221.698 171 221.698 170.104C221.698 169.208 221.502 168.536 221.11 168.088C220.718 167.621 220.233 167.388 219.654 167.388C219.075 167.388 218.59 167.621 218.198 168.088C217.806 168.536 217.61 169.208 217.61 170.104C217.61 171 217.797 171.681 218.17 172.148C218.562 172.596 219.057 172.82 219.654 172.82ZM251.035 162.096C253.051 162.096 254.609 162.703 255.711 163.916C256.831 165.129 257.391 166.772 257.391 168.844V178H251.203V169.628C251.203 168.956 250.997 168.433 250.587 168.06C250.195 167.668 249.663 167.472 248.991 167.472C248.3 167.472 247.759 167.668 247.367 168.06C246.975 168.433 246.779 168.956 246.779 169.628V178H240.591V169.628C240.591 168.956 240.385 168.433 239.975 168.06C239.583 167.668 239.051 167.472 238.379 167.472C237.688 167.472 237.147 167.668 236.755 168.06C236.363 168.433 236.167 168.956 236.167 169.628V178H229.951V162.208H236.167V164.336C236.615 163.664 237.221 163.123 237.987 162.712C238.771 162.301 239.685 162.096 240.731 162.096C241.869 162.096 242.877 162.348 243.755 162.852C244.632 163.337 245.332 164.028 245.855 164.924C246.433 164.103 247.171 163.431 248.067 162.908C248.963 162.367 249.952 162.096 251.035 162.096ZM275.901 162.096C277.712 162.096 279.121 162.703 280.129 163.916C281.156 165.129 281.669 166.772 281.669 168.844V178H275.481V169.628C275.481 168.881 275.276 168.293 274.865 167.864C274.473 167.416 273.941 167.192 273.269 167.192C272.579 167.192 272.037 167.416 271.645 167.864C271.253 168.293 271.057 168.881 271.057 169.628V178H264.841V157.28H271.057V164.616C271.543 163.869 272.187 163.263 272.989 162.796C273.811 162.329 274.781 162.096 275.901 162.096ZM291.869 178.196C290.282 178.196 288.854 177.869 287.585 177.216C286.316 176.563 285.317 175.629 284.589 174.416C283.88 173.184 283.525 171.747 283.525 170.104C283.525 168.461 283.88 167.033 284.589 165.82C285.317 164.588 286.316 163.645 287.585 162.992C288.854 162.339 290.282 162.012 291.869 162.012C293.456 162.012 294.884 162.339 296.153 162.992C297.422 163.645 298.412 164.588 299.121 165.82C299.849 167.033 300.213 168.461 300.213 170.104C300.213 171.747 299.849 173.184 299.121 174.416C298.412 175.629 297.422 176.563 296.153 177.216C294.884 177.869 293.456 178.196 291.869 178.196ZM291.869 172.82C292.448 172.82 292.933 172.596 293.325 172.148C293.717 171.681 293.913 171 293.913 170.104C293.913 169.208 293.717 168.536 293.325 168.088C292.933 167.621 292.448 167.388 291.869 167.388C291.29 167.388 290.805 167.621 290.413 168.088C290.021 168.536 289.825 169.208 289.825 170.104C289.825 171 290.012 171.681 290.385 172.148C290.777 172.596 291.272 172.82 291.869 172.82ZM323.25 162.096C325.266 162.096 326.824 162.703 327.926 163.916C329.046 165.129 329.606 166.772 329.606 168.844V178H323.418V169.628C323.418 168.956 323.212 168.433 322.802 168.06C322.41 167.668 321.878 167.472 321.206 167.472C320.515 167.472 319.974 167.668 319.582 168.06C319.19 168.433 318.994 168.956 318.994 169.628V178H312.806V169.628C312.806 168.956 312.6 168.433 312.19 168.06C311.798 167.668 311.266 167.472 310.594 167.472C309.903 167.472 309.362 167.668 308.97 168.06C308.578 168.433 308.382 168.956 308.382 169.628V178H302.166V162.208H308.382V164.336C308.83 163.664 309.436 163.123 310.202 162.712C310.986 162.301 311.9 162.096 312.946 162.096C314.084 162.096 315.092 162.348 315.97 162.852C316.847 163.337 317.547 164.028 318.07 164.924C318.648 164.103 319.386 163.431 320.282 162.908C321.178 162.367 322.167 162.096 323.25 162.096ZM347.586 169.964C347.586 170.393 347.558 170.804 347.502 171.196H337.506C337.6 172.559 338.169 173.24 339.214 173.24C339.886 173.24 340.372 172.932 340.67 172.316H347.25C347.026 173.436 346.55 174.444 345.822 175.34C345.113 176.217 344.208 176.917 343.106 177.44C342.024 177.944 340.829 178.196 339.522 178.196C337.954 178.196 336.554 177.869 335.322 177.216C334.109 176.563 333.157 175.629 332.466 174.416C331.794 173.184 331.458 171.747 331.458 170.104C331.458 168.461 331.794 167.033 332.466 165.82C333.157 164.588 334.109 163.645 335.322 162.992C336.554 162.339 337.954 162.012 339.522 162.012C341.09 162.012 342.481 162.339 343.694 162.992C344.926 163.627 345.878 164.541 346.55 165.736C347.241 166.931 347.586 168.34 347.586 169.964ZM341.286 168.48C341.286 167.957 341.118 167.565 340.782 167.304C340.446 167.024 340.026 166.884 339.522 166.884C338.421 166.884 337.777 167.416 337.59 168.48H341.286ZM352.632 178.224C351.55 178.224 350.682 177.935 350.028 177.356C349.375 176.777 349.048 176.049 349.048 175.172C349.048 174.276 349.375 173.539 350.028 172.96C350.682 172.363 351.55 172.064 352.632 172.064C353.696 172.064 354.555 172.363 355.208 172.96C355.862 173.539 356.188 174.276 356.188 175.172C356.188 176.049 355.862 176.777 355.208 177.356C354.555 177.935 353.696 178.224 352.632 178.224Z" fill="#2E2C43"/>
<path d="M490.584 436.215H82.7725V366.981H89.0636V315.448C89.0773 303.307 93.9064 291.667 102.492 283.081C111.077 274.496 122.717 269.667 134.858 269.653H439.239C451.38 269.667 463.02 274.496 471.605 283.082C480.19 291.667 485.02 303.307 485.033 315.448V366.981H490.584V436.215Z" fill="#E4E4E4"/>
<path d="M501.636 512.416H481.335V512.046C481.314 494.091 474.173 476.878 461.477 464.182C448.781 451.486 431.567 444.344 413.613 444.324H159.748C141.793 444.344 124.579 451.486 111.883 464.182C99.1874 476.878 92.0459 494.091 92.0256 512.046V512.416H71.7244C67.0991 512.411 62.6648 510.571 59.3943 507.301C56.1238 504.03 54.2841 499.596 54.2789 494.971V381.796C48.3837 378.466 43.589 360.377 46.7034 345.93C48.6579 336.864 54.3002 325.916 70.0809 325.238C85.4428 324.577 96.8452 338.999 97.8637 352.882C98.4157 360.187 96.2701 367.442 91.8331 373.271H92.0256V389.417C125.338 378.741 158.697 373.309 191.184 373.271C224.428 373.304 257.441 378.798 288.903 389.534C354.319 368.376 419.058 367.965 481.335 388.315V373.271H481.527C477.09 367.442 474.945 360.187 475.497 352.882C476.614 337.655 489.07 325.254 503.263 325.237H503.31C520.047 325.237 525.967 335.313 527.986 343.771C531.56 358.738 524.999 378.438 519.081 381.796V494.971C519.076 499.596 517.236 504.03 513.966 507.301C510.695 510.571 506.261 512.411 501.636 512.416Z" fill="#CACACA"/>
<path d="M358.658 395.707C358.658 395.707 364.762 385.693 372.598 391.614C380.435 397.535 394.948 407.525 394.948 407.525C394.948 407.525 397.92 413.915 390.227 411.515C382.533 409.115 357.418 405.252 357.418 405.252L358.658 395.707Z" fill="#9E616A"/>
<path d="M328.673 408.153C322.105 408.153 316.093 407.524 311.316 406.036C305.638 404.268 302.072 401.409 300.718 397.532C300.081 395.886 299.891 394.1 300.167 392.357C300.442 390.614 301.174 388.974 302.287 387.604C310.687 376.659 339.837 373.572 343.748 373.207L351.683 358.182C352.191 354.597 349.789 351.883 353.939 351.815L403.032 351.149C407.107 351.063 405.951 353.587 406.649 357.082L414.128 370.434L381.937 384.021L386.804 395.88L386.487 396.065C377.065 401.53 349.971 408.152 328.673 408.153Z" fill="#2F2E41"/>
<path d="M409.671 371.004C409.671 371.004 454.628 365.86 451.696 386.439C448.764 407.018 414.558 421.595 362.76 386.439L368.624 376.149C368.624 376.149 387.926 375.189 399.654 370.044L409.671 371.004Z" fill="#2F2E41"/>
<path d="M405.516 266.857L389.354 260.812L358.027 260.408L344.542 266.857L348.329 288.624C348.329 288.624 340.683 301.572 349.102 314.522L350.991 360.664C350.991 360.664 381.195 378.178 406.689 357.146L400.927 314.245C400.927 314.245 410.564 294.34 403.094 286.946L405.516 266.857Z" fill="#3F3D56"/>
<path d="M397.447 390.706C397.447 390.706 392.413 380.114 384.005 385.192C375.598 390.27 360.129 398.703 360.129 398.703C360.129 398.703 356.51 404.751 364.411 403.161C372.312 401.57 397.692 400.329 397.692 400.329L397.447 390.706Z" fill="#9E616A"/>
<path d="M389.561 355.709H358.029C357.236 355.709 356.475 355.394 355.913 354.833C355.352 354.272 355.037 353.511 355.037 352.717L353.647 311.459C353.647 310.665 353.963 309.904 354.524 309.343C355.085 308.782 355.846 308.466 356.64 308.466H390.951C391.744 308.466 392.505 308.782 393.067 309.343C393.628 309.904 393.943 310.665 393.943 311.459L392.553 352.717C392.553 353.511 392.238 354.272 391.677 354.833C391.116 355.394 390.355 355.709 389.561 355.709Z" fill="white"/>
<path d="M373.796 323.751C375.33 323.751 376.575 322.507 376.575 320.972C376.575 319.437 375.33 318.193 373.796 318.193C372.261 318.193 371.017 319.437 371.017 320.972C371.017 322.507 372.261 323.751 373.796 323.751Z" fill="#F9A826"/>
<path d="M374.663 339.287C374.178 338.298 373.482 337.428 372.624 336.737C371.766 336.046 370.767 335.552 369.697 335.29C368.628 335.027 367.513 335.002 366.433 335.216C365.353 335.431 364.333 335.879 363.444 336.531L348.72 327.608L341.116 335.234L362.086 347.541C363.279 348.961 364.952 349.894 366.786 350.162C368.621 350.431 370.491 350.018 372.041 349C373.591 347.983 374.714 346.432 375.198 344.642C375.681 342.852 375.491 340.946 374.663 339.287Z" fill="#9E616A"/>
<path d="M373.955 335.927C374.615 335.045 375.46 334.319 376.431 333.799C377.402 333.279 378.475 332.978 379.575 332.918C380.674 332.857 381.774 333.039 382.796 333.45C383.818 333.86 384.738 334.49 385.49 335.294L401.61 329.25L407.673 338.151L384.787 346.366C383.352 347.541 381.536 348.148 379.683 348.072C377.831 347.997 376.07 347.245 374.735 345.958C373.399 344.671 372.582 342.94 372.439 341.091C372.295 339.242 372.835 337.405 373.955 335.927Z" fill="#9E616A"/>
<path d="M403.775 266.677C403.775 266.677 414.242 264.584 417.033 273.655C419.824 282.725 433.779 316.218 429.592 321.102C425.406 325.986 410.055 339.244 405.171 342.035C400.287 344.826 398.193 344.826 398.193 344.826L391.914 347.617L389.82 331.568L396.982 327.326L407.962 318.311L401.682 299.472L403.775 266.677Z" fill="#3F3D56"/>
<path d="M345.758 266.974C345.758 266.974 335.291 264.881 332.5 273.951C329.709 283.022 315.754 316.515 319.941 321.399C324.127 326.283 339.478 339.541 344.362 342.332C349.246 345.123 351.34 345.123 351.34 345.123L357.619 347.914L359.713 331.865L352.551 327.623L341.571 318.608L351.688 293.838L345.758 266.974Z" fill="#3F3D56"/>
<path d="M374.925 254.359C388.245 254.359 399.044 243.56 399.044 230.24C399.044 216.919 388.245 206.121 374.925 206.121C361.604 206.121 350.806 216.919 350.806 230.24C350.806 243.56 361.604 254.359 374.925 254.359Z" fill="#9E616A"/>
<path d="M398.917 212.598C397.305 209.085 394.43 206.308 390.864 204.818C387.33 203.393 383.38 203.396 379.849 204.828C376.66 202.813 373.117 201.216 369.386 201.019C365.655 200.821 361.71 202.205 359.411 205.252C358.897 206.056 358.314 206.814 357.668 207.516C355.82 209.228 353.011 208.981 350.554 208.631C351.656 209.575 352.758 210.52 353.861 211.464C352.527 211.812 351.193 212.161 349.859 212.509C351.415 213.453 352.972 214.397 354.528 215.341C350.01 218.054 347.956 223.973 348.498 229.35C349.011 234.44 351.469 239.095 354.407 243.232C355.579 240.759 355.326 237.8 355.307 235.014C355.287 232.071 355.807 228.729 358.165 227.085C359.756 225.975 361.802 225.926 363.72 225.936C373.396 225.989 383.062 226.593 392.669 227.743C393.973 227.8 395.244 228.168 396.376 228.818C398.5 230.268 398.914 233.259 399.128 235.883C400.25 231.55 400.8 227.089 400.762 222.613C400.732 219.187 400.338 215.692 398.917 212.598Z" fill="#2F2E41"/>
<path d="M148.589 230.777C150.127 232.304 151.008 234.372 151.044 236.539C151.079 238.706 150.265 240.802 148.777 242.377C148.47 242.692 148.136 242.981 147.781 243.241L156.126 271.061L141.925 266.619L136.177 240.882C135.206 239.328 134.779 237.496 134.962 235.673C135.145 233.85 135.928 232.139 137.188 230.809C137.927 230.047 138.812 229.44 139.79 229.024C140.768 228.609 141.819 228.394 142.881 228.391C143.944 228.388 144.996 228.597 145.976 229.007C146.956 229.417 147.845 230.019 148.589 230.777Z" fill="#FFB6B6"/>
<path d="M208.891 436.575L217.813 433.43L209.659 396.75L196.49 401.392L208.891 436.575Z" fill="#FEB8B8"/>
<path d="M241.727 427.06C241.727 427.06 249.525 434.699 255.241 427.564C260.957 420.429 271.765 408.095 271.765 408.095C271.765 408.095 272.985 401.65 266.593 405.575C260.201 409.501 238.425 418.732 238.425 418.732L241.727 427.06Z" fill="#FEB8B8"/>
<path d="M239.761 421.584L246.781 415.243L225.115 384.543L214.754 393.903L239.761 421.584Z" fill="#FEB8B8"/>
<path d="M153.291 259.276L154.92 264.23L162.245 286.479C162.747 287.945 162.954 289.496 162.856 291.042C162.758 292.589 162.356 294.101 161.673 295.492C160.99 296.883 160.04 298.125 158.876 299.149C157.713 300.172 156.359 300.956 154.892 301.456C152.18 302.343 149.235 302.193 146.627 301.035L105.406 282.275C103.783 281.559 102.334 280.501 101.158 279.173C99.9821 277.845 99.1065 276.278 98.5914 274.581C98.0763 272.883 97.9338 271.095 98.1737 269.337C98.4136 267.579 99.0301 265.894 99.9812 264.397C101.585 261.881 104.087 260.071 106.978 259.334C109.869 258.597 112.932 258.99 115.544 260.432L144.118 276.653L140.891 261.268L153.291 259.276Z" fill="#F9A826"/>
<path d="M218.157 419.219L204.079 425.701L175.404 369.66C150.822 383.383 126.642 393.526 103.37 395.607C99.5377 395.916 95.7379 394.706 92.7912 392.237C89.8446 389.768 87.9879 386.238 87.6223 382.411C87.5836 382.036 87.5593 381.661 87.5492 381.284C87.3569 372.586 88.9148 362.643 91.1631 352.21L130.754 352.703L133.984 357.647L169.678 339.627C171.408 338.775 173.291 338.273 175.216 338.151C177.142 338.029 179.073 338.289 180.897 338.917C182.722 339.545 184.404 340.527 185.847 341.808C187.29 343.089 188.465 344.643 189.305 346.38C189.498 346.768 189.675 347.164 189.834 347.568L218.157 419.219Z" fill="#2F2E41"/>
<path d="M235.919 399.031L221.842 405.512L176.432 360.842C151.849 374.564 127.67 384.707 104.397 386.788C100.565 387.098 96.7652 385.887 93.8186 383.418C90.872 380.949 89.0152 377.419 88.6496 373.592C88.611 373.218 88.5866 372.842 88.5766 372.465C88.3843 363.767 89.9421 353.825 92.1904 343.391L134.083 332.476L135.012 348.828L170.705 330.808C172.436 329.956 174.318 329.454 176.244 329.332C178.169 329.21 180.1 329.47 181.925 330.098C183.749 330.726 185.431 331.708 186.874 332.989C188.317 334.27 189.492 335.824 190.332 337.561C190.525 337.949 190.702 338.345 190.862 338.749L235.919 399.031Z" fill="#2F2E41"/>
<path d="M106.315 250.034C116.18 246.558 121.296 235.564 117.742 225.479C114.188 215.394 103.309 210.037 93.4442 213.514C83.5792 216.99 78.4632 227.984 82.0173 238.069C85.5714 248.154 96.4498 253.511 106.315 250.034Z" fill="#FFB6B6"/>
<path d="M130.864 254.632C130.801 255.02 130.891 255.418 131.116 255.741C131.34 256.064 131.68 256.288 132.066 256.365C132.565 256.256 146.34 259.539 146.368 258.597C146.527 258.483 146.662 258.337 146.764 258.17C146.866 258.003 146.933 257.816 146.962 257.623L153.109 217.443C153.143 217.222 153.128 216.997 153.065 216.783C153.002 216.569 152.893 216.372 152.746 216.205C152.938 215.157 138.809 216.38 138.275 216.275C137.94 216.289 137.62 216.419 137.371 216.643C137.122 216.868 136.958 217.172 136.909 217.503L130.864 254.632Z" fill="#3F3D56"/>
<path d="M150.263 217.644C150.263 217.644 138.347 218.412 138.484 218.218C138.186 218.31 137.445 218.094 137.41 218.598L131.772 253.923C131.308 254.813 144.541 256.086 144.748 256.365C145.846 256.614 150.255 218.457 150.686 218.118C150.702 218.011 150.676 217.902 150.613 217.815C150.55 217.727 150.455 217.667 150.349 217.648C150.321 217.644 150.292 217.642 150.263 217.644Z" fill="#F9A826"/>
<path d="M119.861 256.585C119.878 256.121 119.833 255.657 119.728 255.205C119.429 253.882 118.619 252.732 117.476 252.004C116.332 251.276 114.947 251.03 113.622 251.32L104.989 253.314C104.338 253.471 103.725 253.755 103.185 254.15C102.644 254.545 102.187 255.043 101.84 255.616C101.493 256.188 101.263 256.824 101.162 257.485C101.061 258.147 101.093 258.822 101.254 259.472C101.525 260.63 102.182 261.66 103.117 262.394C99.0243 264.362 95.5976 267.486 93.2598 271.379C90.922 275.273 89.7754 279.765 89.9615 284.303C87.1307 302.443 87.4404 322.162 92.0244 344.033L135.061 348.547L138.518 313.566L139.782 308.136C140.126 307.357 140.446 306.587 140.734 305.817C142.484 301.502 143.493 296.924 143.72 292.274C143.85 288.953 143.445 285.632 142.518 282.44C139.552 272.229 131.32 263.85 119.861 256.585Z" fill="#F9A826"/>
<path opacity="0.2" d="M143.72 292.274C143.493 296.924 142.483 301.502 140.734 305.817C140.446 306.587 140.126 307.357 139.781 308.136L138.518 313.565C125.351 309.429 106.078 281.662 106.078 281.662L117.025 275.234L143.72 292.274Z" fill="black"/>
<path d="M134.061 242.173C133.655 244.303 134.096 246.508 135.291 248.318C136.486 250.128 138.339 251.4 140.458 251.865C140.89 251.952 141.329 252.004 141.769 252.019L150.587 279.694L159.814 268.05L150.026 243.555C149.947 241.723 149.265 239.969 148.084 238.565C146.904 237.162 145.292 236.189 143.501 235.799C142.461 235.582 141.389 235.576 140.347 235.781C139.305 235.987 138.315 236.398 137.435 236.993C136.555 237.587 135.803 238.351 135.224 239.241C134.644 240.131 134.249 241.128 134.061 242.173Z" fill="#FFB6B6"/>
<path d="M145.903 269.725L159.596 266.984L168.552 294.185C169.198 296.123 169.338 298.194 168.959 300.201C168.58 302.208 167.693 304.085 166.384 305.653C164.78 307.557 162.601 308.887 160.175 309.444C157.75 310.002 155.209 309.755 152.935 308.742L111.714 289.98C108.824 288.689 106.538 286.339 105.328 283.414C104.117 280.489 104.073 277.212 105.205 274.255C105.763 272.785 106.61 271.443 107.697 270.306C108.783 269.17 110.087 268.264 111.531 267.641C112.974 267.019 114.528 266.692 116.1 266.682C117.672 266.671 119.231 266.977 120.682 267.58C121.082 267.745 121.473 267.931 121.853 268.138L150.423 284.359L145.903 269.725Z" fill="#F9A826"/>
<path d="M108.12 205.606C103.512 204.706 98.8647 206.338 94.4813 207.946C91.3054 209.111 88.1294 210.276 84.9535 211.441C81.0986 212.855 77.0498 214.405 74.4819 217.642C71.9141 220.878 71.5997 226.362 74.9314 228.868C66.4262 225.397 56.4048 227.907 49.2857 233.607C45.7038 236.347 42.9408 240.016 41.2966 244.216C39.6242 248.822 39.7194 253.96 40.7343 258.797C41.7492 263.634 43.6416 268.239 45.5234 272.811C46.7068 275.686 48.2025 278.872 51.0954 279.891C53.7643 280.831 56.7227 279.505 58.7478 277.548C62.2792 274.135 63.7664 269.068 64.4766 264.142C65.1872 259.215 65.27 254.158 66.6341 249.385C67.9984 244.612 70.9608 239.978 75.5556 238.297C74.0218 243.953 75.7802 250.769 80.6259 254.059C84.1106 256.424 88.6304 256.697 92.6736 255.746C96.7166 254.795 100.4 252.744 104.026 250.715C106.482 249.342 109.264 247.428 109.226 244.56C109.189 241.748 106.476 239.852 104.803 237.59C101.576 233.225 102.596 226.287 106.924 223.176L106.394 222.926C110.59 222.088 115.189 219.873 116.081 215.62C117.055 210.976 112.728 206.507 108.12 205.606Z" fill="#2F2E41"/>
<path d="M114.877 401.059C110.748 401.056 106.657 400.275 102.817 398.757C98.968 397.273 95.4508 395.041 92.4691 392.19C89.4873 389.339 87.1001 385.926 85.4453 382.147L61.7071 327.593C54.882 311.908 62.5312 293.78 78.7584 287.183L79.1616 287.019L127.655 398.464L127.252 398.628C123.323 400.23 119.12 401.056 114.877 401.059Z" fill="#3F3D56"/>
<path d="M461.299 395.718C457.714 395.717 454.165 394.998 450.862 393.605L450.521 393.461L491.554 295.9L491.895 296.044C498.494 298.828 503.719 304.116 506.424 310.748C509.129 317.38 509.093 324.814 506.324 331.419L486.237 379.176C484.168 384.081 480.699 388.266 476.263 391.208C471.827 394.151 466.622 395.719 461.299 395.718Z" fill="#3F3D56"/>
</g>
<defs>
<filter id="filter0_d_966_1533" x="-54.1973" y="-147.855" width="599.314" height="605.821" filterUnits="userSpaceOnUse" color-interpolation-filters="sRGB">
<feFlood flood-opacity="0" result="BackgroundImageFix"/>
<feColorMatrix in="SourceAlpha" type="matrix" values="0 0 0 0 0 0 0 0 0 0 0 0 0 0 0 0 0 0 127 0" result="hardAlpha"/>
<feOffset dx="10" dy="10"/>
<feGaussianBlur stdDeviation="50"/>
<feComposite in2="hardAlpha" operator="out"/>
<feColorMatrix type="matrix" values="0 0 0 0 0.741667 0 0 0 0 0.741667 0 0 0 0 0.741667 0 0 0 0.35 0"/>
<feBlend mode="normal" in2="BackgroundImageFix" result="effect1_dropShadow_966_1533"/>
<feBlend mode="normal" in="SourceGraphic" in2="effect1_dropShadow_966_1533" result="shape"/>
</filter>
<clipPath id="clip0_966_1533">
<rect width="545" height="424" fill="white"/>
</clipPath>
</defs>
</svg>
